<svg xmlns="http://www.w3.org/2000/svg" width="230.17" height="353" viewBox="0 0 230.17 353">
    <g id="Illustration" transform="translate(-0.83)">
        <path id="Shape" d="M16.422,41.419h0L9.87,38.862l.6-4.176a16.637,16.637,0,0,1-3.319-3.153l-4.169.851L.17,25.993l3.4-2.557a16.571,16.571,0,0,1-.086-4.6L0,16.448,2.552,9.886l4.17.6A16.672,16.672,0,0,1,9.87,7.158L9.019,2.982,15.4.17l2.552,3.409a15.36,15.36,0,0,1,2.53-.2,18.716,18.716,0,0,1,2.066.119L24.931,0l6.552,2.556-.595,4.176a16.644,16.644,0,0,1,3.318,3.154l4.17-.852,2.808,6.392-3.4,2.641a16.655,16.655,0,0,1,.085,4.6l3.488,2.387L38.8,31.618l-4.17-.682a16.6,16.6,0,0,1-3.149,3.325l.851,4.176-6.382,2.812L23.4,37.839a15.39,15.39,0,0,1-2.533.2,18.764,18.764,0,0,1-2.062-.118l-2.383,3.493Zm4.361-27.933a7.509,7.509,0,1,0,4.046,1.188A7.534,7.534,0,0,0,20.783,13.486Z" transform="translate(33.59 9.716)" fill="#e0e0e0"/>
        <path id="Shape-2" data-name="Shape" d="M19.4,48.749h0l-7.657-2.983.68-4.943a22.547,22.547,0,0,1-3.915-3.665L3.659,38.1.341,30.6l4-2.984a22.6,22.6,0,0,1-.17-5.368L0,19.431l2.979-7.67,4.935.682a22.478,22.478,0,0,1,3.659-3.92l-.936-4.858L18.125.341,21.1,4.347a24.264,24.264,0,0,1,3.465-.259c.642,0,1.28.03,1.9.088L29.272,0,36.93,2.983l-.68,4.944a22.433,22.433,0,0,1,3.914,3.665l4.849-.938,3.319,7.5-4,2.983a22.6,22.6,0,0,1,.17,5.369l4.169,2.812-2.978,7.672-4.935-.682a22.518,22.518,0,0,1-3.659,3.92l.936,4.857-7.488,3.325L27.57,44.4a24.261,24.261,0,0,1-3.464.259c-.642,0-1.28-.03-1.9-.088L19.4,48.749Zm4.971-32.876h0a8.648,8.648,0,0,0-3.525.745,8.831,8.831,0,0,0-1.175,15.539,8.948,8.948,0,0,0,4.8,1.4A8.648,8.648,0,0,0,28,32.812a8.978,8.978,0,0,0,4.755-5.058,8.564,8.564,0,0,0-.245-6.619,8.752,8.752,0,0,0-3.335-3.863,8.949,8.949,0,0,0-4.8-1.4Z" transform="translate(143.101 250.56)" fill="#e0e0e0"/>
        <path id="Shape-3" data-name="Shape" d="M11.317,28.3h0L6.807,26.59l.427-2.9a13.367,13.367,0,0,1-2.3-2.129l-2.808.6L.17,17.812l2.3-1.7a12.784,12.784,0,0,1-.085-3.154L0,11.335,1.7,6.818,4.6,7.244a13.4,13.4,0,0,1,2.127-2.3L6.127,2.131,10.466.17l1.7,2.3a11.287,11.287,0,0,1,1.851-.142c.416,0,.853.019,1.3.055L16.933,0l4.511,1.7-.427,2.9a13.448,13.448,0,0,1,2.3,2.131l2.808-.6,1.957,4.347-2.3,1.7a12.827,12.827,0,0,1,.085,3.153l2.382,1.62-1.7,4.517-2.893-.427a13.344,13.344,0,0,1-2.127,2.3l.6,2.812-4.34,1.96-1.7-2.3a11.342,11.342,0,0,1-1.85.141c-.417,0-.854-.019-1.3-.056l-1.617,2.386ZM14.176,9.033a5.379,5.379,0,0,0-2.093.427A5.161,5.161,0,0,0,9.36,12.326a5.3,5.3,0,0,0,.085,3.953,5.127,5.127,0,0,0,4.715,3.068,5.376,5.376,0,0,0,2.092-.427,4.935,4.935,0,0,0,2.723-2.834A5.36,5.36,0,0,0,18.89,12.1,5.125,5.125,0,0,0,14.176,9.033Z" transform="translate(141.825 305.189)" fill="#f5f5f5"/>
        <path id="Shape-4" data-name="Shape" d="M9.871,24.8h0L5.957,23.266,6.3,20.8A10.277,10.277,0,0,1,4.34,18.92l-2.468.511L.171,15.6l2.042-1.535a9.858,9.858,0,0,1-.086-2.727L0,9.886l1.532-3.92L4,6.306A10.257,10.257,0,0,1,5.867,4.351l.005,0-.51-2.471L9.19.17l1.532,2.046a9.148,9.148,0,0,1,1.63-.141c.355,0,.723.019,1.094.056L14.891,0l3.915,1.534-.341,2.472a10.2,10.2,0,0,1,1.957,1.875l2.468-.511,1.7,3.835L22.55,10.738a9.9,9.9,0,0,1,.085,2.727l2.127,1.449L23.23,18.835l-2.467-.341a10.284,10.284,0,0,1-1.861,1.95l-.011.01.51,2.47-3.83,1.706L14.04,22.584a9.11,9.11,0,0,1-1.631.142c-.354,0-.721-.019-1.091-.055L9.872,24.8ZM12.4,8.039h0a4.545,4.545,0,1,0,4.109,2.7A4.517,4.517,0,0,0,12.4,8.04Z" transform="translate(71.88)" fill="#ebebeb"/>
        <path id="Path" d="M65.775.086H59.649a4.665,4.665,0,0,0-1.872.17A3.012,3.012,0,0,0,56.33,1.534a3.62,3.62,0,0,0-.34,1.023c-.085.341,0,.682-.085,1.108V4.773a6.05,6.05,0,0,1-.085,1.193,3.207,3.207,0,0,1-1.362,1.96,2.847,2.847,0,0,1-1.191.426h-23.4a2.9,2.9,0,0,1-.851-.085,3.556,3.556,0,0,1-1.532-.937,2.882,2.882,0,0,1-.766-1.62V3.835a4.154,4.154,0,0,0-.17-1.789A2.681,2.681,0,0,0,25.442.6,3.141,3.141,0,0,0,23.655.086H9.615A9.668,9.668,0,0,0,5.531.853a9.954,9.954,0,0,0-3.4,2.556A9.469,9.469,0,0,0,.17,7.33C.085,7.671.085,8.1,0,8.438v151.87a11.469,11.469,0,0,0,.34,2.983A9.076,9.076,0,0,0,4,168.319a9.162,9.162,0,0,0,5.956,1.619H71.391a8.994,8.994,0,0,0,5.276-2.045,8.884,8.884,0,0,0,1.872-2.131,9.966,9.966,0,0,0,1.191-2.557,10.612,10.612,0,0,0,.341-2.812V146.246c0-29.658,0-56.419.085-78.918,0-22.5,0-40.652.085-53.18V9.716a11.359,11.359,0,0,0-.681-3.835,9.344,9.344,0,0,0-1.787-2.813,7.47,7.47,0,0,0-2.127-1.7A10.384,10.384,0,0,0,72.157.086,4.533,4.533,0,0,0,71.221,0H69.6C68.754.086,67.477.086,65.775.086Z" transform="translate(1.255 47.214)" fill="#fafafa"/>
        <path id="Path-2" data-name="Path" d="M71.306.1h.34a4.132,4.132,0,0,1,.936.086A8.661,8.661,0,0,1,76.156,1.38a12.368,12.368,0,0,1,2.127,1.7A9.344,9.344,0,0,1,80.07,5.9a10.969,10.969,0,0,1,.681,3.835V160.409a11.2,11.2,0,0,1-.341,2.9,9.275,9.275,0,0,1-1.191,2.642,9.606,9.606,0,0,1-1.957,2.216,9.826,9.826,0,0,1-5.446,2.131c-1.957.085-3.914,0-5.956,0H10.3a9.856,9.856,0,0,1-6.126-1.705,9.317,9.317,0,0,1-3.744-5.2A10.07,10.07,0,0,1,0,160.238V9.647A4.867,4.867,0,0,1,.085,8.539C.17,8.2.17,7.772.255,7.431A9.8,9.8,0,0,1,2.212,3.425,9.736,9.736,0,0,1,5.7.783,9.066,9.066,0,0,1,9.87.016H23.91a3.426,3.426,0,0,1,1.872.512,3.567,3.567,0,0,1,1.191,1.534,4.691,4.691,0,0,1,.17,1.874V5.811a3.885,3.885,0,0,0,.681,1.62,2.3,2.3,0,0,0,1.447.852,2.9,2.9,0,0,0,.851.085h23.4a2.847,2.847,0,0,0,1.191-.426,3.035,3.035,0,0,0,1.362-1.875,4.873,4.873,0,0,0,.085-1.108V3.851a4.873,4.873,0,0,1,.085-1.108,4.808,4.808,0,0,1,.34-1.022A3,3,0,0,1,58.117.357a4.665,4.665,0,0,1,1.872-.17h9.87C70.88.1,71.306.1,71.306.1H60.159a4.668,4.668,0,0,0-1.872.171A3.012,3.012,0,0,0,56.84,1.55a3.62,3.62,0,0,0-.34,1.023c-.085.341,0,.682-.085,1.108V4.789a6.051,6.051,0,0,1-.085,1.193,3.207,3.207,0,0,1-1.362,1.96,2.842,2.842,0,0,1-1.191.426h-23.4a2.9,2.9,0,0,1-.851-.085,3.548,3.548,0,0,1-1.532-.938,2.879,2.879,0,0,1-.766-1.619V3.851a4.154,4.154,0,0,0-.17-1.789A2.681,2.681,0,0,0,25.953.613,3.142,3.142,0,0,0,24.166.1H10.126A9.683,9.683,0,0,0,6.042.868a9.969,9.969,0,0,0-3.4,2.557A10.352,10.352,0,0,0,.681,7.431C.6,7.772.6,8.2.511,8.539c0,.341-.085.767-.085,1.108V160.238a13.268,13.268,0,0,0,.34,3.154,9.076,9.076,0,0,0,3.659,5.028,9.162,9.162,0,0,0,5.956,1.619H71.816a8.994,8.994,0,0,0,5.276-2.045,8.884,8.884,0,0,0,1.872-2.131,9.966,9.966,0,0,0,1.191-2.557,10.612,10.612,0,0,0,.341-2.812V146.347c0-29.658,0-56.419.085-78.918,0-22.5,0-40.652.085-53.18V9.817a11.359,11.359,0,0,0-.681-3.835A9.344,9.344,0,0,0,78.2,3.169a7.47,7.47,0,0,0-2.127-1.7A10.384,10.384,0,0,0,72.582.187,4.533,4.533,0,0,0,71.646.1Z" transform="translate(0.83 47.113)" fill="#263238"/>
        <path id="Path-3" data-name="Path" d="M3.489.585C5.416.569,6.978.518,6.977.471S5.415.4,3.488.415,0,.482,0,.529,1.563.6,3.489.585Z" transform="translate(67.033 62.057)" fill="#263238"/>
        <path id="Path-4" data-name="Path" d="M3.489.585C5.416.569,6.978.518,6.977.471S5.415.4,3.488.415,0,.482,0,.529,1.563.6,3.489.585Z" transform="translate(67.033 63.847)" fill="#263238"/>
        <path id="Path-5" data-name="Path" d="M3.489.585C5.416.569,6.978.518,6.977.471S5.415.4,3.488.415,0,.482,0,.529,1.563.6,3.489.585Z" transform="translate(67.033 65.637)" fill="#263238"/>
        <path id="Path-6" data-name="Path" d="M0,5.915H2.042v-1.7a.476.476,0,0,1,.511-.426h.681a.569.569,0,0,1,.51.6V5.915L3.659,5.83H5.531l-.085.085v-2.9a.468.468,0,0,0-.255-.426,7.586,7.586,0,0,0-.851-.767l-.766-.767C3.4.972,3.319.8,3.234.717,3.063.631,2.978.461,2.808.461a.638.638,0,0,0-.425.085l-.34.341-.681.682L.17,2.762c-.17.171-.085.426-.085.682V5.83A.083.083,0,0,0,0,5.915V2.847a.771.771,0,0,1,.085-.426C.426,2,.851,1.654,1.276,1.143L1.957.461,2.3.12A.563.563,0,0,1,2.808.035a.846.846,0,0,1,.425.341,1.883,1.883,0,0,0,.425.341l.766.767a7.777,7.777,0,0,0,.851.767c.085.085.17.17.17.255.085.086.085.171.085.341V5.83H3.489V4.211a.389.389,0,0,0-.34-.426H2.468a.565.565,0,0,0-.425.341v1.7H.085Z" transform="translate(10.785 62.179)" fill="#263238"/>
        <path id="Path-7" data-name="Path" d="M6.3,12.613A6.307,6.307,0,1,0,0,6.306,6.3,6.3,0,0,0,6.3,12.613Z" transform="translate(36.057 71.589)" fill="#d12028"/>
        <path id="Path-8" data-name="Path" d="M4.339,2.642H0V2.13A2.108,2.108,0,0,1,2.127,0,2.108,2.108,0,0,1,4.254,2.13v.512Z" transform="translate(40.142 77.725)" fill="#fff"/>
        <path id="Path-9" data-name="Path" d="M1.276,2.556A1.278,1.278,0,1,0,0,1.278,1.277,1.277,0,0,0,1.276,2.556Z" transform="translate(41.078 75.339)" fill="#fff"/>
        <path id="Path-10" data-name="Path" d="M16.593,1.023c9.164,0,16.593-.229,16.593-.511S25.757,0,16.593,0,0,.229,0,.512,7.429,1.023,16.593,1.023Z" transform="translate(24.74 93.917)" fill="#263238"/>
        <path id="Path-11" data-name="Path" d="M0,21.647l28.676.16L28.8.16.12,0Z" transform="translate(7.301 110.957)" fill="#d12028"/>
        <path id="Path-12" data-name="Path" d="M0,13.38,10.126,0l6.127,8.437,4.255-4.431,8.168,9.545Z" transform="translate(7.297 119.229)" fill="#d12028"/>
        <path id="Path-13" data-name="Path" d="M2.3,4.6A2.3,2.3,0,1,0,0,2.3,2.3,2.3,0,0,0,2.3,4.6Z" transform="translate(21.677 115.309)" fill="#d12028"/>
        <g id="Group" transform="translate(7 119)" opacity="0.2">
            <path id="Path-14" data-name="Path" d="M0,13.38,10.126,0l6.127,8.437,4.255-4.431,8.168,9.545Z" transform="translate(0.297 0.229)" opacity="0.2"/>
        </g>
        <g id="Group-2" data-name="Group" transform="translate(21 115)" opacity="0.2">
            <path id="Path-15" data-name="Path" d="M2.3,4.6A2.3,2.3,0,1,0,0,2.3,2.3,2.3,0,0,0,2.3,4.6Z" transform="translate(0.677 0.309)" opacity="0.2"/>
        </g>
        <path id="Path-16" data-name="Path" d="M0,49.942l66.37.37L66.648.371.278,0Z" transform="translate(6.998 139.31)" fill="#d12028"/>
        <path id="Path-17" data-name="Path" d="M0,30.937,23.315,0l14.3,19.517L47.4,9.2,66.37,31.278Z" transform="translate(7.042 158.347)" fill="#d12028"/>
        <path id="Path-18" data-name="Path" d="M5.191,10.4A5.2,5.2,0,1,0,0,5.2,5.195,5.195,0,0,0,5.191,10.4Z" transform="translate(40.482 149.399)" fill="#d12028"/>
        <g id="Group-3" data-name="Group" transform="translate(7 158)" opacity="0.2">
            <path id="Path-19" data-name="Path" d="M0,30.937,23.315,0l14.3,19.517L47.4,9.2,66.37,31.278Z" transform="translate(0.041 0.347)" opacity="0.2"/>
        </g>
        <g id="Group-4" data-name="Group" transform="translate(40 149)" opacity="0.2">
            <path id="Path-20" data-name="Path" d="M5.191,10.4A5.2,5.2,0,1,0,0,5.2,5.195,5.195,0,0,0,5.191,10.4Z" transform="translate(0.482 0.399)" opacity="0.2"/>
        </g>
        <path id="Path-21" data-name="Path" d="M0,21.647l28.676.16L28.8.16.121,0Z" transform="translate(45.251 110.957)" fill="#d12028"/>
        <path id="Path-22" data-name="Path" d="M0,13.38,10.126,0l6.211,8.437,4.17-4.431,8.254,9.545Z" transform="translate(45.162 119.229)" fill="#d12028"/>
        <path id="Path-23" data-name="Path" d="M2.3,4.6A2.3,2.3,0,1,0,0,2.3,2.3,2.3,0,0,0,2.3,4.6Z" transform="translate(59.627 115.309)" fill="#d12028"/>
        <g id="Group-5" data-name="Group" transform="translate(45 119)" opacity="0.2">
            <path id="Path-24" data-name="Path" d="M0,13.38,10.126,0l6.211,8.437,4.17-4.431,8.254,9.545Z" transform="translate(0.162 0.229)" opacity="0.2"/>
        </g>
        <g id="Group-6" data-name="Group" transform="translate(59 115)" opacity="0.2">
            <path id="Path-25" data-name="Path" d="M2.3,4.6A2.3,2.3,0,1,0,0,2.3,2.3,2.3,0,0,0,2.3,4.6Z" transform="translate(0.627 0.309)" opacity="0.2"/>
        </g>
        <path id="Path-26" data-name="Path" d="M65.86.085H59.733a4.669,4.669,0,0,0-1.872.171,3,3,0,0,0-1.446,1.278,3.62,3.62,0,0,0-.341,1.023c-.085.341,0,.682-.085,1.108V4.773A6.051,6.051,0,0,1,55.9,5.966a3.209,3.209,0,0,1-1.361,1.96,2.852,2.852,0,0,1-1.192.426h-23.4a2.9,2.9,0,0,1-.851-.085,3.554,3.554,0,0,1-1.532-.938A2.882,2.882,0,0,1,26.8,5.71V3.835a4.157,4.157,0,0,0-.17-1.789A2.682,2.682,0,0,0,25.527.6,3.143,3.143,0,0,0,23.74.085H9.7A9.682,9.682,0,0,0,5.616.852a9.965,9.965,0,0,0-3.4,2.557A9.468,9.468,0,0,0,.255,7.329C.17,7.67.17,8.1.085,8.437A3.509,3.509,0,0,1,0,9.375V160.307a11.467,11.467,0,0,0,.34,2.983A9.079,9.079,0,0,0,4,168.319a9.167,9.167,0,0,0,5.956,1.619H71.391a8.983,8.983,0,0,0,5.275-2.046,8.839,8.839,0,0,0,1.872-2.13,9.985,9.985,0,0,0,1.192-2.557,10.611,10.611,0,0,0,.34-2.812V146.245c0-29.658,0-56.418.085-78.917,0-22.5,0-40.653.085-53.181V9.716a11.335,11.335,0,0,0-.681-3.835,9.344,9.344,0,0,0-1.787-2.813,7.457,7.457,0,0,0-2.127-1.7A10.387,10.387,0,0,0,72.157.085,4.59,4.59,0,0,0,71.221,0H69.6C68.753.085,67.562.085,65.86.085Z" transform="translate(140.549 45.595)" fill="#fafafa"/>
        <path id="Path-27" data-name="Path" d="M71.306.1h.341a4.183,4.183,0,0,1,.936.085A8.654,8.654,0,0,1,76.156,1.38a12.419,12.419,0,0,1,2.128,1.705A9.378,9.378,0,0,1,80.071,5.9a10.991,10.991,0,0,1,.68,3.835V160.409a11.258,11.258,0,0,1-.34,2.9,9.315,9.315,0,0,1-1.191,2.642,9.649,9.649,0,0,1-1.957,2.215,9.822,9.822,0,0,1-5.446,2.131c-1.957.085-3.914,0-5.957,0H10.3a9.86,9.86,0,0,1-6.126-1.7,9.316,9.316,0,0,1-3.744-5.2A10.051,10.051,0,0,1,0,160.239V9.647A4.873,4.873,0,0,1,.085,8.539C.17,8.2.17,7.772.256,7.431A9.8,9.8,0,0,1,2.213,3.425,9.748,9.748,0,0,1,5.7.783,9.068,9.068,0,0,1,9.871.016h14.04a3.429,3.429,0,0,1,1.872.512,3.574,3.574,0,0,1,1.191,1.534,4.7,4.7,0,0,1,.17,1.875V5.812a3.887,3.887,0,0,0,.681,1.619,2.3,2.3,0,0,0,1.446.852,2.9,2.9,0,0,0,.851.085h23.4a2.852,2.852,0,0,0,1.192-.426,3.034,3.034,0,0,0,1.361-1.875,4.868,4.868,0,0,0,.085-1.108V3.852a4.873,4.873,0,0,1,.085-1.108,4.765,4.765,0,0,1,.341-1.023A3,3,0,0,1,58.117.357a4.687,4.687,0,0,1,1.872-.17H69.86C70.881.1,71.306.1,71.306.1H60.159a4.669,4.669,0,0,0-1.872.17,3.006,3.006,0,0,0-1.446,1.279A3.634,3.634,0,0,0,56.5,2.573c-.085.341,0,.682-.085,1.108V4.789a6.051,6.051,0,0,1-.085,1.193,3.205,3.205,0,0,1-1.361,1.96,2.852,2.852,0,0,1-1.191.426h-23.4a2.9,2.9,0,0,1-.851-.085A3.558,3.558,0,0,1,28,7.346a2.885,2.885,0,0,1-.766-1.619V3.852a4.16,4.16,0,0,0-.17-1.79A2.682,2.682,0,0,0,25.953.613,3.142,3.142,0,0,0,24.166.1H10.126A9.667,9.667,0,0,0,6.042.869a9.962,9.962,0,0,0-3.4,2.556A9.466,9.466,0,0,0,.681,7.346C.6,7.687.6,8.113.511,8.454c0,.341-.085.767-.085,1.108V160.153a13.278,13.278,0,0,0,.34,3.154,9.077,9.077,0,0,0,3.659,5.028,9.162,9.162,0,0,0,5.956,1.619H71.817a8.988,8.988,0,0,0,5.275-2.045,8.863,8.863,0,0,0,1.872-2.131,9.969,9.969,0,0,0,1.192-2.557,10.61,10.61,0,0,0,.34-2.812V146.262c0-29.658,0-56.419.085-78.918,0-22.5,0-40.652.085-53.18V9.732a11.359,11.359,0,0,0-.68-3.835A9.378,9.378,0,0,0,78.2,3.085,7.478,7.478,0,0,0,76.071,1.38,10.373,10.373,0,0,0,72.583.1a4.538,4.538,0,0,0-.936-.086A1.337,1.337,0,0,1,71.306.1Z" transform="translate(140.208 45.664)" fill="#263238"/>
        <path id="Path-28" data-name="Path" d="M3.489.585C5.416.569,6.978.518,6.977.471S5.415.4,3.488.415,0,.482,0,.529,1.563.6,3.489.585Z" transform="translate(206.416 60.608)" fill="#263238"/>
        <path id="Path-29" data-name="Path" d="M3.49.585C5.416.569,6.978.518,6.978.471S5.415.4,3.488.415,0,.482,0,.529,1.563.6,3.49.585Z" transform="translate(206.416 62.398)" fill="#263238"/>
        <path id="Path-30" data-name="Path" d="M3.49.585C5.416.569,6.978.518,6.978.471S5.415.4,3.488.415,0,.482,0,.529,1.563.6,3.49.585Z" transform="translate(206.416 64.188)" fill="#263238"/>
        <path id="Path-31" data-name="Path" d="M0,5.916H2.042v-1.7a.476.476,0,0,1,.511-.426h.68a.57.57,0,0,1,.511.6V5.916L3.659,5.83H5.531l-.085.086v-2.9a.468.468,0,0,0-.256-.426,7.572,7.572,0,0,0-.85-.767l-.766-.767C3.4.973,3.318.8,3.233.717,3.063.632,2.978.461,2.808.461a.641.641,0,0,0-.426.085l-.34.341-.681.682L.17,2.762c-.17.171-.085.426-.085.682V5.83A.084.084,0,0,0,0,5.916V2.848a.773.773,0,0,1,.085-.427C.425,2,.851,1.654,1.276,1.143L1.957.461,2.3.12A.565.565,0,0,1,2.808.035a.85.85,0,0,1,.425.341,1.863,1.863,0,0,0,.426.341l.766.767a7.6,7.6,0,0,0,.851.767c.085.085.17.17.17.256.085.085.085.17.085.341V5.83H3.489V4.211a.39.39,0,0,0-.341-.426h-.68a.564.564,0,0,0-.426.341v1.7H.085Z" transform="translate(150.164 60.73)" fill="#263238"/>
        <path id="Path-32" data-name="Path" d="M15.742,31.533A15.767,15.767,0,1,0,0,15.766,15.754,15.754,0,0,0,15.742,31.533Z" transform="translate(166.076 86.077)" fill="#d12028"/>
        <path id="Path-33" data-name="Path" d="M10.806,6.733H0V5.369a5.361,5.361,0,1,1,10.721,0V6.733Z" transform="translate(176.372 101.417)" fill="#fff"/>
        <path id="Path-34" data-name="Path" d="M3.149,6.307A3.154,3.154,0,1,0,0,3.154,3.151,3.151,0,0,0,3.149,6.307Z" transform="translate(178.669 95.451)" fill="#fff"/>
        <path id="Path-35" data-name="Path" d="M53.011,0H0V10.824H53.011Z" transform="translate(153.738 135.592)" fill="#ebebeb"/>
        <path id="Path-36" data-name="Path" d="M53.011,0H0V10.823H53.011Z" transform="translate(153.738 151.359)" fill="#ebebeb"/>
        <path id="Path-37" data-name="Path" d="M32.08,10.909H5.446A5.455,5.455,0,0,1,5.446,0H32.08a5.455,5.455,0,0,1,0,10.909Z" transform="translate(161.906 172.835)" fill="#d12028"/>
        <path id="Path-38" data-name="Path" d="M16.592,1.022c9.164,0,16.593-.229,16.593-.511S25.756,0,16.592,0,0,.229,0,.511,7.429,1.022,16.592,1.022Z" transform="translate(164.119 128.519)" fill="#263238"/>
        <path id="Path-39" data-name="Path" d="M2.808,1.96H.425A.4.4,0,0,1,0,1.534,1.526,1.526,0,0,1,1.531,0h.085A1.527,1.527,0,0,1,3.148,1.534C3.233,1.7,3.063,1.96,2.808,1.96Z" transform="translate(158.248 141.473)" fill="#e0e0e0"/>
        <path id="Path-40" data-name="Path" d="M.936,1.875A.938.938,0,1,0,0,.937.937.937,0,0,0,.936,1.875Z" transform="translate(159.013 139.683)" fill="#e0e0e0"/>
        <path id="Path-41" data-name="Path" d="M2.808,0H0V1.961H2.808Z" transform="translate(158.503 156.898)" fill="#e0e0e0"/>
        <path id="Path-42" data-name="Path" d="M3.4,2.3H2.467v-.6a.766.766,0,1,0-1.531,0v.6H0v-.6a1.7,1.7,0,1,1,3.4,0Z" transform="translate(158.248 155.023)" fill="#e0e0e0"/>
        <path id="Path-43" data-name="Path" d="M98.195.171H89.09a7.26,7.26,0,0,0-2.723.255A3.975,3.975,0,0,0,84.24,2.387a4.2,4.2,0,0,0-.51,1.448,9.822,9.822,0,0,0-.085,1.62v1.7a10.777,10.777,0,0,1-.086,1.705,4.223,4.223,0,0,1-2.042,2.9,3.2,3.2,0,0,1-1.787.6,15.035,15.035,0,0,1-1.957,0H44.843a3.96,3.96,0,0,1-1.361-.171,4.878,4.878,0,0,1-2.3-1.363,4.395,4.395,0,0,1-1.106-2.472,7.344,7.344,0,0,1-.085-1.363V5.625A7.281,7.281,0,0,0,39.738,2.9,4.008,4.008,0,0,0,38.121.767,4.1,4.1,0,0,0,35.483.086H14.466A14.088,14.088,0,0,0,3.234,5.114a14.3,14.3,0,0,0-2.893,5.8,10.679,10.679,0,0,0-.255,1.619c0,.426-.086.938-.086,1.364V238.544a12.987,12.987,0,0,0,.6,4.431,14.165,14.165,0,0,0,5.446,7.5,14.524,14.524,0,0,0,8.934,2.472H97.685c2.978,0,5.871.085,8.764,0a13.592,13.592,0,0,0,10.721-6.222,12.878,12.878,0,0,0,1.7-3.835,13.7,13.7,0,0,0,.511-4.176v-21.05c0-44.232.085-84.032.085-117.44s.085-60.509.085-79.173V14.4a14.742,14.742,0,0,0-1.021-5.625A13.508,13.508,0,0,0,115.894,4.6a13.842,13.842,0,0,0-3.148-2.556A13.745,13.745,0,0,0,107.555.171c-.6-.085-1.106-.085-1.446-.171h-2.383A47.119,47.119,0,0,1,98.195.171Z" transform="translate(52.139 12.272)" fill="#fafafa"/>
        <path id="Path-44" data-name="Path" d="M105.6.61h.511a10.454,10.454,0,0,1,1.446.085,13.142,13.142,0,0,1,5.276,1.79,14.153,14.153,0,0,1,3.233,2.556A13.508,13.508,0,0,1,118.7,9.217a13.671,13.671,0,0,1,1.021,5.711V21.49c0,18.664,0,45.68.085,79V238.642a14.284,14.284,0,0,1-.51,4.261,13.6,13.6,0,0,1-1.787,3.92,14.9,14.9,0,0,1-2.893,3.239,14.619,14.619,0,0,1-8.084,3.153c-2.893.085-5.871,0-8.764,0H15.231A14.333,14.333,0,0,1,.6,242.988a15.019,15.019,0,0,1-.6-4.772V14.5c0-.6.085-1.108.085-1.7.085-.6.17-1.108.255-1.7A14.114,14.114,0,0,1,3.318,5.127,15.515,15.515,0,0,1,8.509,1.206,15.794,15.794,0,0,1,14.72.013H35.653A4.421,4.421,0,0,1,38.376.78,5.374,5.374,0,0,1,40.077,3a7.6,7.6,0,0,1,.256,2.727V7.087a7.344,7.344,0,0,0,.085,1.363,4.982,4.982,0,0,0,1.021,2.387A4.368,4.368,0,0,0,43.566,12.2a3.227,3.227,0,0,0,1.276.086h34.8a4.08,4.08,0,0,0,1.7-.6A4.651,4.651,0,0,0,83.3,8.877a5.72,5.72,0,0,0,.085-1.7v-1.7a10.231,10.231,0,0,1,.086-1.62,5.437,5.437,0,0,1,.51-1.534A4.46,4.46,0,0,1,86.2.354,6.326,6.326,0,0,1,89,.1h14.721A5.812,5.812,0,0,0,105.6.61H89a7.423,7.423,0,0,0-2.722.255,3.974,3.974,0,0,0-2.128,1.961,4.2,4.2,0,0,0-.51,1.448,9.822,9.822,0,0,0-.085,1.62V7.6a10.9,10.9,0,0,1-.085,1.7,4.224,4.224,0,0,1-2.043,2.9,3.2,3.2,0,0,1-1.787.6,15.035,15.035,0,0,1-1.957,0H44.757a3.291,3.291,0,0,1-1.276-.171,4.87,4.87,0,0,1-2.3-1.363,4.39,4.39,0,0,1-1.107-2.472,7.344,7.344,0,0,1-.085-1.363V6.064a6.677,6.677,0,0,0-.255-2.642,4,4,0,0,0-1.617-2.13A4.1,4.1,0,0,0,35.482.61H14.55A14.092,14.092,0,0,0,3.318,5.638,14.327,14.327,0,0,0,.425,11.433a10.692,10.692,0,0,0-.255,1.62c0,.6-.085,1.107-.085,1.7V238.471a13.994,13.994,0,0,0,.6,4.6,13.511,13.511,0,0,0,5.361,7.414,14.125,14.125,0,0,0,8.849,2.472H97.428c2.894,0,5.872.085,8.765,0a13.756,13.756,0,0,0,7.828-3.068,14.115,14.115,0,0,0,2.808-3.154,12.877,12.877,0,0,0,1.7-3.835,13.728,13.728,0,0,0,.51-4.176V217.762c0-44.146.086-83.861.086-117.184,0-33.408.085-60.339.085-79V15.013a14.735,14.735,0,0,0-1.021-5.625,14.6,14.6,0,0,0-2.638-4.176A13.852,13.852,0,0,0,112.4,2.655,13.772,13.772,0,0,0,107.214.78c-.6-.085-1.106-.085-1.447-.17Z" transform="translate(52.31 11.833)" fill="#263238"/>
        <path id="Path-45" data-name="Path" d="M5.192.585C8.058.561,10.382.5,10.381.457S8.057.391,5.19.415,0,.5,0,.543,2.325.609,5.192.585Z" transform="translate(150.339 34.698)" fill="#263238"/>
        <path id="Path-46" data-name="Path" d="M5.191.585C8.058.562,10.382.5,10.381.457S8.057.391,5.19.415,0,.5,0,.543,2.325.609,5.191.585Z" transform="translate(150.339 37.34)" fill="#263238"/>
        <path id="Path-47" data-name="Path" d="M5.191.586C8.058.562,10.382.5,10.381.457S8.057.391,5.19.415,0,.5,0,.543,2.325.609,5.191.586Z" transform="translate(150.339 39.982)" fill="#263238"/>
        <path id="Path-48" data-name="Path" d="M0,8.726H.851c.595,0,1.276,0,2.212-.085l-.085.085V6.17a.818.818,0,0,1,.766-.682H4.765a.763.763,0,0,1,.681.852v2.3l-.085-.085H8.169l-.085.085V4.295c0-.256-.171-.426-.426-.682A15.747,15.747,0,0,1,6.467,2.42L5.276,1.227l-.6-.6A1.523,1.523,0,0,0,4.084.2a.7.7,0,0,0-.6.085L2.978.8,1.957,1.823C1.361,2.5.681,3.1.17,3.613A4.29,4.29,0,0,0,0,4.636V8.3c.085.341.085.426,0,.426V4.21a1.58,1.58,0,0,1,.17-.6c.511-.6,1.106-1.193,1.787-1.875L2.978.715,3.489.2a.864.864,0,0,1,.765-.17,2.029,2.029,0,0,1,.681.511l.6.6A15.59,15.59,0,0,1,6.722,2.335L7.913,3.528c.085.085.256.17.341.341a1.212,1.212,0,0,1,.17.511V8.812H5.446V6.425a.723.723,0,0,0-.6-.681H3.829a.637.637,0,0,0-.6.511V8.726H0Z" transform="translate(66.69 34.738)" fill="#263238"/>
        <path id="Path-49" data-name="Path" d="M90.025,17.812H7.488A7.451,7.451,0,0,1,0,10.312V7.5A7.451,7.451,0,0,1,7.488,0H90.025a7.451,7.451,0,0,1,7.488,7.5v2.812A7.56,7.56,0,0,1,90.025,17.812Z" transform="translate(62.606 57.441)" fill="#f5f5f5"/>
        <path id="Path-50" data-name="Path" d="M90.314,17.9a3.556,3.556,0,0,0,.6-.085,4.934,4.934,0,0,0,1.617-.341,8.234,8.234,0,0,0,2.382-1.278,6.3,6.3,0,0,0,2.213-2.813,7.193,7.193,0,0,0,.6-2.045A21.6,21.6,0,0,0,97.8,8.949c0-.853,0-1.705-.085-2.642a8.192,8.192,0,0,0-.936-2.642A7.253,7.253,0,0,0,91.845.256c-1.106-.171-2.212-.085-3.4-.171H84.868c-19.741,0-46.885,0-76.922.086a6.935,6.935,0,0,0-4.935,1.96A7.267,7.267,0,0,0,.713,6.9c-.085.853,0,1.79,0,2.727a9.007,9.007,0,0,0,.255,2.642,7.935,7.935,0,0,0,3.064,4.176,5.94,5.94,0,0,0,2.382,1.023,12.823,12.823,0,0,0,2.553.171H58.83c9.87,0,17.784.085,23.315.085h8a.167.167,0,0,0,.171.17h-8.6c-5.531,0-13.444,0-23.314.085H8.541a13.746,13.746,0,0,1-2.637-.17,6.891,6.891,0,0,1-2.468-1.023A7.75,7.75,0,0,1,.288,12.443,7.429,7.429,0,0,1,.032,9.716V6.989A7.79,7.79,0,0,1,2.415,2.045,7.794,7.794,0,0,1,7.6,0C37.642,0,64.871,0,84.527.085H88.1a14.941,14.941,0,0,1,3.4.171,7.438,7.438,0,0,1,5.02,3.579,8.458,8.458,0,0,1,1.021,2.642,13.957,13.957,0,0,1,.085,2.642,21.6,21.6,0,0,1-.085,2.386,8.778,8.778,0,0,1-.6,2.131,7.068,7.068,0,0,1-2.3,2.812,6.226,6.226,0,0,1-2.382,1.194,7.588,7.588,0,0,1-1.617.255Z" transform="translate(62.318 57.356)" fill="#263238"/>
        <path id="Path-51" data-name="Path" d="M6.642,3.344a2.76,2.76,0,0,0-.17-.767A3,3,0,0,0,5.281.872,3.054,3.054,0,0,0,2.388.446a2.9,2.9,0,0,0-1.957,2.9,3.225,3.225,0,0,0,1.957,2.9,3.054,3.054,0,0,0,2.893-.426,3.488,3.488,0,0,0,1.191-1.7c.085-.427.085-.767.17-.767v.17a1.672,1.672,0,0,1-.085.6A3.146,3.146,0,0,1,5.366,5.986,3.32,3.32,0,0,1,0,3.344,3.283,3.283,0,0,1,2.217.19,3.3,3.3,0,0,1,5.366.7,3.617,3.617,0,0,1,6.557,2.577a1.664,1.664,0,0,1,.085.6Z" transform="translate(147.521 62.535)" fill="#263238"/>
        <path id="Path-52" data-name="Path" d="M1.323,1.685A6.813,6.813,0,0,0,2.892,3.134a6.789,6.789,0,0,0-1.319-1.68A6.79,6.79,0,0,0,.005,0,6.792,6.792,0,0,0,1.323,1.685Z" transform="translate(153.053 68.352)" fill="#263238"/>
        <path id="Path-53" data-name="Path" d="M1.7.426H0V0H4V.426H2.3V4.858h-.51V.426Z" transform="translate(74.008 64.174)" fill="#e0e0e0"/>
        <path id="Shape-5" data-name="Shape" d="M0,1.875A1.768,1.768,0,0,1,1.787,0,1.768,1.768,0,0,1,3.574,1.875c.17.086.17.17.17.17H.595A1.406,1.406,0,0,0,2.042,3.324a1.372,1.372,0,0,0,1.106-.512l.255.341a1.749,1.749,0,0,1-1.446.6A1.812,1.812,0,0,1,0,1.875Z" transform="translate(77.837 65.282)" fill="#e0e0e0"/>
        <path id="Path-54" data-name="Path" d="M2.978,3.665,1.787,2.131.6,3.665H0L1.447,1.79.085,0h.6L1.787,1.449,2.893,0H3.4L2.042,1.79,3.489,3.665Z" transform="translate(81.921 65.367)" fill="#e0e0e0"/>
        <path id="Path-55" data-name="Path" d="M2.553,4.346a1.184,1.184,0,0,1-.766.256A1.028,1.028,0,0,1,.681,3.494V1.278H0V.852H.681V0h.51V.852H2.3v.426H1.191V3.494a.627.627,0,0,0,.681.682.915.915,0,0,0,.511-.17Z" transform="translate(85.665 64.515)" fill="#e0e0e0"/>
        <path id="Path-56" data-name="Path" d="M15.912.67C24.7.67,31.824.595,31.824.5S24.7.329,15.912.329,0,.407,0,.5,7.124.67,15.912.67Z" transform="translate(97.237 91.628)" fill="#d12028"/>
        <path id="Path-57" data-name="Path" d="M57.351.5c0,.085-12.848.17-28.675.17S0,.585,0,.5,12.849.33,28.676.33C44.588.33,57.351.415,57.351.5Z" transform="translate(97.152 98.19)" fill="#263238"/>
        <path id="Path-58" data-name="Path" d="M56.671.5c0,.086-12.679.171-28.335.171S0,.586,0,.5,12.679.329,28.336.329,56.671.414,56.671.5Z" transform="translate(97.152 102.878)" fill="#263238"/>
        <path id="Path-59" data-name="Path" d="M16.678.67C25.889.67,33.356.594,33.356.5S25.889.33,16.678.33,0,.406,0,.5,7.467.67,16.678.67Z" transform="translate(97.237 107.309)" fill="#263238"/>
        <path id="Path-60" data-name="Path" d="M15.912.67C24.7.67,31.824.595,31.824.5S24.7.329,15.912.329,0,.405,0,.5,7.124.67,15.912.67Z" transform="translate(97.237 127.252)" fill="#d12028"/>
        <path id="Path-61" data-name="Path" d="M57.351.5c0,.085-12.848.17-28.675.17S0,.586,0,.5,12.849.329,28.676.329C44.588.329,57.351.415,57.351.5Z" transform="translate(97.152 133.814)" fill="#263238"/>
        <path id="Path-62" data-name="Path" d="M56.671.5c0,.085-12.679.171-28.335.171S0,.585,0,.5,12.679.329,28.336.329,56.671.414,56.671.5Z" transform="translate(97.152 138.501)" fill="#263238"/>
        <path id="Path-63" data-name="Path" d="M16.678.67C25.889.67,33.356.595,33.356.5S25.889.329,16.678.329,0,.407,0,.5,7.467.67,16.678.67Z" transform="translate(97.237 142.932)" fill="#263238"/>
        <path id="Path-64" data-name="Path" d="M15.912.67C24.7.67,31.824.595,31.824.5S24.7.329,15.912.329,0,.405,0,.5,7.124.67,15.912.67Z" transform="translate(97.237 162.876)" fill="#d12028"/>
        <path id="Path-65" data-name="Path" d="M57.351.5c0,.085-12.848.17-28.675.17S0,.586,0,.5,12.849.329,28.676.329C44.588.329,57.351.414,57.351.5Z" transform="translate(97.152 169.438)" fill="#263238"/>
        <path id="Path-66" data-name="Path" d="M56.671.5c0,.085-12.679.171-28.335.171S0,.585,0,.5,12.679.329,28.336.329,56.671.414,56.671.5Z" transform="translate(97.152 174.126)" fill="#263238"/>
        <path id="Path-67" data-name="Path" d="M16.678.67C25.889.67,33.356.595,33.356.5S25.889.329,16.678.329,0,.407,0,.5,7.467.67,16.678.67Z" transform="translate(97.237 178.557)" fill="#263238"/>
        <path id="Path-68" data-name="Path" d="M15.912.67C24.7.67,31.824.594,31.824.5S24.7.329,15.912.329,0,.405,0,.5,7.124.67,15.912.67Z" transform="translate(97.237 198.499)" fill="#d12028"/>
        <path id="Path-69" data-name="Path" d="M57.351.5c0,.085-12.848.17-28.675.17S0,.586,0,.5,12.849.329,28.676.329C44.588.329,57.351.414,57.351.5Z" transform="translate(97.152 205.061)" fill="#263238"/>
        <path id="Path-70" data-name="Path" d="M56.671.5c0,.085-12.679.17-28.335.17S0,.586,0,.5,12.679.329,28.336.329,56.671.415,56.671.5Z" transform="translate(97.152 209.749)" fill="#263238"/>
        <path id="Path-71" data-name="Path" d="M16.678.67C25.889.67,33.356.595,33.356.5S25.889.329,16.678.329,0,.405,0,.5,7.467.67,16.678.67Z" transform="translate(97.237 214.18)" fill="#263238"/>
        <path id="Path-72" data-name="Path" d="M15.912.67C24.7.67,31.824.595,31.824.5S24.7.329,15.912.329,0,.405,0,.5,7.124.67,15.912.67Z" transform="translate(97.237 233.867)" fill="#d12028"/>
        <path id="Path-73" data-name="Path" d="M57.351.5c0,.085-12.848.17-28.675.17S0,.586,0,.5,12.849.329,28.676.329C44.588.329,57.351.415,57.351.5Z" transform="translate(97.152 240.43)" fill="#263238"/>
        <path id="Path-74" data-name="Path" d="M56.671.5c0,.085-12.679.17-28.335.17S0,.585,0,.5,12.679.33,28.336.33,56.671.415,56.671.5Z" transform="translate(97.152 245.117)" fill="#263238"/>
        <path id="Path-75" data-name="Path" d="M16.678.67C25.889.67,33.356.595,33.356.5S25.889.329,16.678.329,0,.407,0,.5,7.467.67,16.678.67Z" transform="translate(97.237 249.548)" fill="#263238"/>
        <path id="Path-76" data-name="Path" d="M0,19.516l25.953.145L26.061.145.109,0Z" transform="translate(62.975 91.909)" fill="#d12028"/>
        <path id="Path-77" data-name="Path" d="M0,12.1,9.19,0l5.531,7.585L18.55,3.579l7.4,8.608Z" transform="translate(62.946 99.372)" fill="#d12028"/>
        <path id="Path-78" data-name="Path" d="M2.042,4.091A2.046,2.046,0,1,0,0,2.046,2.044,2.044,0,0,0,2.042,4.091Z" transform="translate(76.05 95.792)" fill="#d12028"/>
        <g id="Group-7" data-name="Group" transform="translate(62 99)" opacity="0.2">
            <path id="Path-79" data-name="Path" d="M0,12.1,9.19,0l5.531,7.585L18.55,3.579l7.4,8.608Z" transform="translate(0.946 0.372)" opacity="0.2"/>
        </g>
        <g id="Group-8" data-name="Group" transform="translate(76 95)" opacity="0.2">
            <path id="Path-80" data-name="Path" d="M2.042,4.091A2.046,2.046,0,1,0,0,2.046,2.044,2.044,0,0,0,2.042,4.091Z" transform="translate(0.05 0.792)" opacity="0.2"/>
        </g>
        <path id="Path-81" data-name="Path" d="M0,19.517l25.953.144L26.061.145.109,0Z" transform="translate(62.975 127.048)" fill="#d12028"/>
        <path id="Path-82" data-name="Path" d="M0,12.1,9.19,0l5.531,7.671L18.55,3.58l7.4,8.693Z" transform="translate(62.946 134.484)" fill="#d12028"/>
        <path id="Path-83" data-name="Path" d="M2.042,4.091A2.046,2.046,0,1,0,0,2.045,2.044,2.044,0,0,0,2.042,4.091Z" transform="translate(76.05 130.99)" fill="#d12028"/>
        <g id="Group-9" data-name="Group" transform="translate(62 134)" opacity="0.2">
            <path id="Path-84" data-name="Path" d="M0,12.1,9.19,0l5.531,7.671L18.55,3.58l7.4,8.693Z" transform="translate(0.946 0.484)" opacity="0.2"/>
        </g>
        <g id="Group-10" data-name="Group" transform="translate(76 130)" opacity="0.2">
            <path id="Path-85" data-name="Path" d="M2.042,4.091A2.046,2.046,0,1,0,0,2.045,2.044,2.044,0,0,0,2.042,4.091Z" transform="translate(0.05 0.99)" opacity="0.2"/>
        </g>
        <path id="Path-86" data-name="Path" d="M0,19.517l25.953.144L26.061.145.108,0Z" transform="translate(62.975 162.272)" fill="#d12028"/>
        <path id="Path-87" data-name="Path" d="M0,12.1,9.19,0l5.531,7.585L18.55,3.579l7.4,8.693Z" transform="translate(62.946 169.682)" fill="#d12028"/>
        <path id="Path-88" data-name="Path" d="M2.042,4.091A2.046,2.046,0,1,0,0,2.045,2.044,2.044,0,0,0,2.042,4.091Z" transform="translate(76.05 166.188)" fill="#d12028"/>
        <g id="Group-11" data-name="Group" transform="translate(62 169)" opacity="0.2">
            <path id="Path-89" data-name="Path" d="M0,12.1,9.19,0l5.531,7.585L18.55,3.579l7.4,8.693Z" transform="translate(0.946 0.682)" opacity="0.2"/>
        </g>
        <g id="Group-12" data-name="Group" transform="translate(76 166)" opacity="0.2">
            <path id="Path-90" data-name="Path" d="M2.042,4.091A2.046,2.046,0,1,0,0,2.045,2.044,2.044,0,0,0,2.042,4.091Z" transform="translate(0.05 0.188)" opacity="0.2"/>
        </g>
        <path id="Path-91" data-name="Path" d="M0,19.517l25.953.145L26.061.145.109,0Z" transform="translate(62.975 197.411)" fill="#d12028"/>
        <path id="Path-92" data-name="Path" d="M0,12.1,9.19,0l5.531,7.67L18.55,3.664l7.4,8.608Z" transform="translate(62.946 204.795)" fill="#d12028"/>
        <path id="Path-93" data-name="Path" d="M2.042,4.091A2.046,2.046,0,1,0,0,2.046,2.044,2.044,0,0,0,2.042,4.091Z" transform="translate(76.05 201.3)" fill="#d12028"/>
        <g id="Group-13" data-name="Group" transform="translate(62 204)" opacity="0.2">
            <path id="Path-94" data-name="Path" d="M0,12.1,9.19,0l5.531,7.67L18.55,3.664l7.4,8.608Z" transform="translate(0.946 0.795)" opacity="0.2"/>
        </g>
        <g id="Group-14" data-name="Group" transform="translate(76 201)" opacity="0.2">
            <path id="Path-95" data-name="Path" d="M2.042,4.091A2.046,2.046,0,1,0,0,2.046,2.044,2.044,0,0,0,2.042,4.091Z" transform="translate(0.05 0.3)" opacity="0.2"/>
        </g>
        <path id="Path-96" data-name="Path" d="M0,19.517l25.953.145L26.062.145.109,0Z" transform="translate(62.975 232.378)" fill="#d12028"/>
        <path id="Path-97" data-name="Path" d="M0,12.1,9.19,0l5.531,7.67L18.55,3.579l7.4,8.693Z" transform="translate(62.946 239.822)" fill="#d12028"/>
        <path id="Path-98" data-name="Path" d="M2.042,4.09A2.045,2.045,0,1,0,0,2.045,2.043,2.043,0,0,0,2.042,4.09Z" transform="translate(76.05 236.328)" fill="#d12028"/>
        <g id="Group-15" data-name="Group" transform="translate(62 239)" opacity="0.2">
            <path id="Path-99" data-name="Path" d="M0,12.1,9.19,0l5.531,7.67L18.55,3.579l7.4,8.693Z" transform="translate(0.946 0.822)" opacity="0.2"/>
        </g>
        <g id="Group-16" data-name="Group" transform="translate(76 236)" opacity="0.2">
            <path id="Path-100" data-name="Path" d="M2.042,4.09A2.045,2.045,0,1,0,0,2.045,2.043,2.043,0,0,0,2.042,4.09Z" transform="translate(0.05 0.328)" opacity="0.2"/>
        </g>
        <path id="Path-101" data-name="Path" d="M12.678,25.4A12.7,12.7,0,1,0,0,12.7,12.689,12.689,0,0,0,12.678,25.4Z" transform="translate(205.643 32.982)" fill="#d12028"/>
        <path id="Path-102" data-name="Path" d="M5.067,8.74a.907.907,0,0,1-.511-.171L.3,5.075A.828.828,0,0,1,.217,3.882.826.826,0,0,1,1.408,3.8L4.982,6.78,10.257.3A.821.821,0,0,1,11.448.217a.824.824,0,0,1,.086,1.193L5.747,8.484a.834.834,0,0,1-.68.256Z" transform="translate(212.489 41.287)" fill="#fff"/>
        <path id="Path-103" data-name="Path" d="M20.416,30.681A26.608,26.608,0,0,1,1.7,0a17.894,17.894,0,0,0-.68,1.961A26.453,26.453,0,1,0,51.9,16.449l.51-2.046A26.466,26.466,0,0,1,20.416,30.681Z" transform="translate(144.128 187.664)" fill="#263238"/>
        <path id="Path-104" data-name="Path" d="M31.994,5.023A26.608,26.608,0,0,1,50.714,35.7a17.9,17.9,0,0,0,.681-1.961A26.453,26.453,0,1,0,.511,19.255Q.255,20.278,0,21.3A26.426,26.426,0,0,1,31.994,5.023Z" transform="translate(145.569 166.449)" fill="#455a64"/>
        <path id="Path-105" data-name="Path" d="M52.174,33.995a1.5,1.5,0,0,1,.085-.426,9.1,9.1,0,0,0,.255-1.193c.085-.256.085-.6.171-.938s.085-.682.17-1.108a13.833,13.833,0,0,0,.17-2.812,25.892,25.892,0,0,0-.936-7.585A25.376,25.376,0,0,0,47.664,10.9a26.265,26.265,0,0,0-9.275-7.755,33.048,33.048,0,0,0-3.063-1.279c-.51-.17-1.106-.341-1.617-.511-.6-.17-1.106-.256-1.7-.426a3.036,3.036,0,0,0-.851-.171L30.306.672A12.723,12.723,0,0,0,28.519.5C27.328.5,26.136.416,24.86.5a28.288,28.288,0,0,0-3.744.511c-.6.171-1.191.341-1.872.511a14.69,14.69,0,0,0-1.787.6A33.25,33.25,0,0,0,13.883,3.74a28.175,28.175,0,0,0-3.318,2.216,23.475,23.475,0,0,0-5.616,5.966,29.529,29.529,0,0,0-3.574,7.585,25.229,25.229,0,0,0-.936,8.352A25.332,25.332,0,0,0,2.056,35.87a28.265,28.265,0,0,0,1.616,3.665,27.344,27.344,0,0,0,2.213,3.238c.425.511.766,1.023,1.191,1.449s.851.937,1.276,1.364a25.339,25.339,0,0,0,2.893,2.386,23.367,23.367,0,0,0,3.064,1.96c.51.256,1.106.511,1.616.767l.766.341c.255.085.6.17.851.256a9.009,9.009,0,0,1,1.617.6c.51.171,1.106.256,1.7.426a14.954,14.954,0,0,0,3.318.512,26.2,26.2,0,0,0,12-1.705,26.979,26.979,0,0,0,8.509-5.369,25.61,25.61,0,0,0,4.765-5.966,13.678,13.678,0,0,0,1.276-2.471,5.168,5.168,0,0,0,.426-1.023,8.768,8.768,0,0,1,.34-.852c.17-.512.341-.938.426-1.193l.255-.256a1.5,1.5,0,0,1-.085.426c-.085.256-.255.682-.426,1.193-.085.256-.17.6-.255.852a5.223,5.223,0,0,1-.425,1.023,13.791,13.791,0,0,1-1.277,2.472,27.062,27.062,0,0,1-4.68,6.051,26.186,26.186,0,0,1-8.509,5.454,26.572,26.572,0,0,1-12.168,1.79c-1.106-.171-2.212-.256-3.318-.512-.6-.17-1.106-.255-1.7-.426a13.526,13.526,0,0,1-1.7-.6c-.255-.086-.6-.171-.851-.256l-.851-.341c-.51-.256-1.106-.511-1.616-.767A31.605,31.605,0,0,1,11.16,48.4a25.339,25.339,0,0,1-2.893-2.386c-.425-.426-.851-.938-1.361-1.449-.426-.426-.851-1.023-1.277-1.534a22.667,22.667,0,0,1-2.212-3.324,28.622,28.622,0,0,1-1.7-3.665,25.958,25.958,0,0,1-1.7-8.1,32.36,32.36,0,0,1,.936-8.522,28.21,28.21,0,0,1,3.659-7.756,25.764,25.764,0,0,1,5.7-6.051,34.113,34.113,0,0,1,3.4-2.3A33.161,33.161,0,0,1,17.287,1.7a6.876,6.876,0,0,1,1.872-.6c.595-.17,1.276-.341,1.872-.511A18.8,18.8,0,0,1,24.775.076a27.357,27.357,0,0,1,3.744,0l1.787.255.851.086a3.02,3.02,0,0,0,.851.17c.595.17,1.191.256,1.7.426.6.171,1.107.341,1.617.511,1.106.341,2.127.853,3.148,1.279a25.4,25.4,0,0,1,9.36,7.926,26.41,26.41,0,0,1,4.425,9.119,25.786,25.786,0,0,1,.851,7.585,26.543,26.543,0,0,1-.255,2.812c-.085.426-.085.767-.17,1.108s-.171.6-.256.937c-.17.512-.255.938-.34,1.194A2.39,2.39,0,0,1,52.174,33.995Z" transform="translate(145.045 166.027)" fill="#263238"/>
        <path id="Path-106" data-name="Path" d="M0,5.625c.341.255,25.357,23.351,34.632,32.044a4.007,4.007,0,0,0,5.446-5.88L5.7,0Z" transform="translate(187.178 209.482)" fill="#263238"/>
        <path id="Path-107" data-name="Path" d="M15.157,17.07l.511-2.046a7.137,7.137,0,0,0-.085-4.005L13.455,4.03A2.407,2.407,0,0,0,12.264,2.5C10.647,1.559,7.5-.231,7.244.025,5.287,1.644,9.626,4.456,9.626,4.456s1.7,1.875.341,3.239C8.435,9.229,5.627,5.82,5.627,5.82s.17-.341.255-.256A5.8,5.8,0,0,0,8.6,6.757v-2.3L6.052,2.837A2.491,2.491,0,0,0,4.18,2.5l-.85.171A1.775,1.775,0,0,0,1.968,3.6L1.117,4.882l-.34.512a1.581,1.581,0,0,0-.17,1.619l.425.852-.595.767a2.321,2.321,0,0,0-.256,2.216l4.34,5.966,6.382,10.4L17.795,19.8Z" transform="translate(43.279 114.091)" fill="#ffbe9d"/>
        <path id="Path-108" data-name="Path" d="M1.106,3.494a1.2,1.2,0,0,1-.255-.426,1.347,1.347,0,0,1,.17-1.108V1.875c0-.085-.085-.085-.085-.171A7.118,7.118,0,0,0,0,0S.34.852.766,1.79c0,.085.085.085.085.17V1.875a1.2,1.2,0,0,0-.17,1.278C.851,3.409,1.106,3.579,1.106,3.494Z" transform="translate(43.971 121.445)" fill="#eb996e"/>
        <path id="Path-109" data-name="Path" d="M.3,0A2.022,2.022,0,0,0,.125,1.193,9.187,9.187,0,0,0,1.317,3.92a3.457,3.457,0,0,1,.425.767,2.908,2.908,0,0,1,.085.852A2.055,2.055,0,0,0,2,6.818a1.673,1.673,0,0,0,.851.852A1.593,1.593,0,0,1,1.827,6.9a2.319,2.319,0,0,1-.255-1.364,2.368,2.368,0,0,0-.085-.767c-.085-.255-.255-.511-.341-.767A7.735,7.735,0,0,1,.04,1.108,1.2,1.2,0,0,1,.3,0Z" transform="translate(45.292 117.184)" fill="#eb996e"/>
        <path id="Path-110" data-name="Path" d="M.872,1.888c-.085,0-.085-.426-.34-.938S.021.1.021.013C.106-.072.447.268.7.78,1.127,1.376.957,1.888.872,1.888Z" transform="translate(48.119 117.938)" fill="#eb996e"/>
        <path id="Path-111" data-name="Path" d="M10.466,36.732,13.1,40.055,26.718,23.607,8.849,0,0,6.988Z" transform="translate(50.353 130.138)" fill="#0e1b47"/>
        <path id="Path-112" data-name="Path" d="M0,.341,1.192,27.1l14.38-.341L14.466,0Z" transform="translate(121.573 325.558)" fill="#d12028"/>
        <path id="Path-113" data-name="Path" d="M.5,13.034c.395,7.19.829,13.013.969,13.006S1.408,20.2,1.014,13.006.185-.008.044,0,.109,5.843.5,13.034Z" transform="translate(128.308 325.363)" fill="#263238"/>
        <path id="Path-114" data-name="Path" d="M0,.341,14.38,0l.085,1.875L.085,2.216Z" transform="translate(122.68 350.443)" fill="#263238"/>
        <path id="Path-115" data-name="Path" d="M14.329,3.937a1.746,1.746,0,0,0-.426-.6,10.47,10.47,0,0,0-1.361-1.278A10.368,10.368,0,0,0,10.159.613a7.165,7.165,0,0,0-3.4-.6A7.674,7.674,0,0,0,1.225,2.743,6.132,6.132,0,0,0,.2,4.363c-.171.426-.256.681-.171.681A13.831,13.831,0,0,1,1.48,3,7.389,7.389,0,0,1,6.756.528,8.575,8.575,0,0,1,12.286,2.4C13.648,3.255,14.244,4.022,14.329,3.937Z" transform="translate(122.476 339.774)" fill="#263238"/>
        <g id="Group-17" data-name="Group" transform="translate(121 333)" opacity="0.3">
            <path id="Path-116" data-name="Path" d="M14.465,0l.085,2.983L.17,3.238,0,1.022Z" transform="translate(0.914 0.143)" opacity="0.3"/>
        </g>
        <path id="Path-117" data-name="Path" d="M15.741.171l.681,16.278S.17,22.585,0,25.653L31.483,25.4,31.4,0Z" transform="translate(71.966 327.347)" fill="#d12028"/>
        <path id="Path-118" data-name="Path" d="M1.507.024a1.386,1.386,0,0,1,.936,1.449A1.294,1.294,0,0,1,1,2.41C.4,2.24-.2,1.473.061.876A1.23,1.23,0,0,1,1.677.109" transform="translate(96.411 342.408)" fill="#e0e0e0"/>
        <path id="Path-119" data-name="Path" d="M31.753,2.556V0L1.291,1.193s-1.447.6-1.277,1.619Z" transform="translate(71.781 350.188)" fill="#263238"/>
        <path id="Path-120" data-name="Path" d="M.005.161c0,.17.766.256,1.531.682C2.3,1.354,2.728,1.951,2.9,1.951S2.813,1.013,1.877.417C.856-.18-.08-.009.005.161Z" transform="translate(88.128 343.72)" fill="#263238"/>
        <path id="Path-121" data-name="Path" d="M0,.038C0,.208.681.464,1.192,1.06s.68,1.364.85,1.364.256-.852-.425-1.7A1.771,1.771,0,0,0,0,.038Z" transform="translate(84.814 345.207)" fill="#263238"/>
        <path id="Path-122" data-name="Path" d="M1.285,2.684c.17,0,.341-.767-.085-1.619S.094-.128.009.042s.425.6.681,1.279C1.115,2.088,1.115,2.684,1.285,2.684Z" transform="translate(81.657 346.566)" fill="#263238"/>
        <path id="Path-123" data-name="Path" d="M.007.689C.092.86.773.6,1.624.689c.851,0,1.531.341,1.617.171.085-.086-.6-.682-1.617-.767C.6.093-.078.6.007.689Z" transform="translate(88.381 339.442)" fill="#263238"/>
        <path id="Path-124" data-name="Path" d="M0,2.557c0,.085.6.17,1.617,0a9.187,9.187,0,0,0,1.7-.511c.34-.171.6-.341.936-.512a1.78,1.78,0,0,0,.511-.341A.768.768,0,0,0,4.851.341.774.774,0,0,0,4.17,0c-.255,0-.426.085-.6.085A4.88,4.88,0,0,0,2.553.426a4.728,4.728,0,0,0-1.446.938C.341,2.046.086,2.642.171,2.642c.085.085.425-.426,1.191-1.023A7.256,7.256,0,0,1,2.808.767,3.027,3.027,0,0,1,3.744.512c.341-.086.6-.086.681.085v.17a1.174,1.174,0,0,1-.34.256c-.255.17-.6.341-.851.511a7.01,7.01,0,0,1-1.532.6A7.686,7.686,0,0,0,0,2.557Z" transform="translate(87.792 334.08)" fill="#263238"/>
        <path id="Path-125" data-name="Path" d="M2.192,4.943c.085,0,.34-.512.425-1.534a4.168,4.168,0,0,0-.255-1.7A3.119,3.119,0,0,0,1.936.767,1.122,1.122,0,0,0,.915,0a.809.809,0,0,0-.68.426,5.649,5.649,0,0,1-.171.6,2.439,2.439,0,0,0,0,1.108A3.57,3.57,0,0,0,.745,3.749c.6.853,1.276,1.023,1.276.938.086-.085-.51-.341-.936-1.193A4.083,4.083,0,0,1,.575,1.96V1.022c.085-.341.17-.6.34-.6s.426.255.6.511.255.6.425.852a13.691,13.691,0,0,1,.341,1.62C2.277,4.261,2.107,4.857,2.192,4.943Z" transform="translate(85.771 331.95)" fill="#263238"/>
        <g id="Group-18" data-name="Group" transform="translate(88 337)" opacity="0.3">
            <path id="Path-126" data-name="Path" d="M15.231,0l-.085,3.665H0V.341Z" transform="translate(0.303 0.063)" opacity="0.3"/>
        </g>
        <path id="Path-127" data-name="Path" d="M4.851,2.566l2.3,8.778S8,16.2,5.7,16.2c-1.957,0-2.212-2.642-2.212-2.642S4.51,8.276,1.872,8.532C1.532,8.532.6,12.2.085,14.072a2.887,2.887,0,0,0,.256,2.045l3.744,6.648a8.323,8.323,0,0,0,2.978,2.982l1.872,1.108.255,3.921,10.551.17L16.508,18.589l-1.362-7.5a2.379,2.379,0,0,0-1.872-1.364l-1.021-.17-.34-.938A1.69,1.69,0,0,0,10.552,7.6l-.6-.086L9.1,5.379C8.85,4.7,6.723.01,5.957.01,5.957-.076,4.255.351,4.851,2.566Z" transform="translate(149.653 63.994)" fill="#ffbe9d"/>
        <path id="Path-128" data-name="Path" d="M2.523,6.051a3.3,3.3,0,0,0-.17-.937A3.094,3.094,0,0,0,.907,3.324a8.02,8.02,0,0,1-.766-2.3C-.029.426-.029,0,.056,0c0,0,.085.341.255.938a17.42,17.42,0,0,0,.766,2.216c.17.17.34.255.51.426a2.237,2.237,0,0,1,.426.511,2.884,2.884,0,0,1,.51,1.023,2.908,2.908,0,0,1,.086.767A.3.3,0,0,1,2.523,6.051Z" transform="translate(159.468 71.077)" fill="#eb996e"/>
        <path id="Path-129" data-name="Path" d="M1.97,3.239a1.317,1.317,0,0,0-.17-.511,1.25,1.25,0,0,0-1.021-.6H.694V2.046c0-.085,0-.085-.085-.171A11.045,11.045,0,0,1,.013,0,7.773,7.773,0,0,1,.779,1.875c0,.086,0,.086.085.171L.779,1.961a1.563,1.563,0,0,1,1.106.767A.627.627,0,0,1,1.97,3.239Z" transform="translate(161.638 73.037)" fill="#eb996e"/>
        <path id="Path-130" data-name="Path" d="M6.977,45.186l19.145-.256L24,28.567s1.277-.256,1.362-7.415c.085-7.073.425-19.175.425-19.175A24.7,24.7,0,0,0,1.021,5.13L0,5.982Z" transform="translate(94.515 73.447)" fill="#ffbe9d"/>
        <path id="Path-131" data-name="Path" d="M4.684.24C4.6.155-.166-1.209,0,3.649s5.02,3.665,5.02,3.58C5.024,7.058,4.684.24,4.684.24Z" transform="translate(91.958 87.882)" fill="#ffbe9d"/>
        <path id="Path-132" data-name="Path" d="M.766.167C.851.082,5.191-1.026,5.021,3.832S0,7.5,0,7.412C.085,7.241.766.167.766.167Z" transform="translate(118.68 86.932)" fill="#ffbe9d"/>
        <path id="Path-133" data-name="Path" d="M0,14.829c.766,4.091.6,6.221,1.277,8.948a14.306,14.306,0,0,0,7.062,9.716c3.829,2.131,9.105,2.131,12.423-.852a11.452,11.452,0,0,0,4.255-7.415c.34-3.068.681-8.437.681-11.505,0-5.54.425-10.824.425-10.824L10.3,0,1.277,5.369Z" transform="translate(95.11 72.782)" fill="#263238"/>
        <path id="Path-134" data-name="Path" d="M5.45.653A5.518,5.518,0,0,1,2.642.909,5.165,5.165,0,0,1,0,.057C.089-.028,1.2.313,2.727.483A25.2,25.2,0,0,1,5.45.653Z" transform="translate(105.998 108.093)" fill="#263238"/>
        <path id="Path-135" data-name="Path" d="M2.157,28.434c-.425-4.176-.766-8.949-1.446-13.38A25.54,25.54,0,0,1,.03,9.344,14.958,14.958,0,0,1,1.051,4.486,7.034,7.034,0,0,1,5.9.736,7.017,7.017,0,0,1,11.772,2.27,5.25,5.25,0,0,1,17.218.139a5.183,5.183,0,0,1,3.914,4.347,3.622,3.622,0,0,1,5.957,3.579,3.77,3.77,0,0,1,2.637,2.046,3.823,3.823,0,0,1-.255,3.323c-.766,1.108-2.042,1.79-2.893,2.813a4.036,4.036,0,0,0-.255,4.346" transform="translate(93.719 66.08)" fill="#263238"/>
        <path id="Path-136" data-name="Path" d="M20.421,1.534a.86.86,0,0,1-.17.426,3.255,3.255,0,0,1-.936,1.023,3.642,3.642,0,0,1-2.042.682A3.411,3.411,0,0,1,14.72,2.472l.341-.085a3.428,3.428,0,0,1-2.128,2.471A3.836,3.836,0,0,1,9.36,4.432,6.179,6.179,0,0,1,7.318,1.79l.425.085a4.417,4.417,0,0,1-3.574,1.96A4.366,4.366,0,0,1,1.191,2.642,4.447,4.447,0,0,1,.085.767,5.27,5.27,0,0,1,0,0L.255.767a5.176,5.176,0,0,0,1.106,1.7A3.662,3.662,0,0,0,4.169,3.494,4.34,4.34,0,0,0,7.4,1.705l.255-.341.17.426A4.637,4.637,0,0,0,9.7,4.176a3.266,3.266,0,0,0,3.148.426,2.787,2.787,0,0,0,1.872-2.13l.085-.426.256.341a2.85,2.85,0,0,0,2.3,1.107,3.51,3.51,0,0,0,1.957-.511A6.249,6.249,0,0,0,20.421,1.534Z" transform="translate(97.408 77.895)" fill="#455a64"/>
        <path id="Path-137" data-name="Path" d="M11.827,7.078a5.057,5.057,0,0,0-.68-1.789,2.739,2.739,0,0,0-1.7-1.108,2.971,2.971,0,0,0-2.383.426l-.425.255V4.351a3.759,3.759,0,0,0-.17-1.363A4.07,4.07,0,0,0,4.51.686,3.652,3.652,0,0,0,2.042.431,3.533,3.533,0,0,0,0,1.624a1.2,1.2,0,0,1,.425-.511A4.048,4.048,0,0,1,2.042.175,3.829,3.829,0,0,1,4.765.346,4.538,4.538,0,0,1,6.977,2.817a3.168,3.168,0,0,1,.17,1.534l-.34-.17A3.594,3.594,0,0,1,9.53,3.669a3,3,0,0,1,1.787,1.364,3.912,3.912,0,0,1,.51,1.364A1.427,1.427,0,0,1,11.827,7.078Z" transform="translate(106.002 70.476)" fill="#455a64"/>
        <path id="Path-138" data-name="Path" d="M1.957,3.721c-.085,0,0-.256,0-.682A2.723,2.723,0,0,0,1.446,1.59,9.982,9.982,0,0,0,.51.312.4.4,0,0,0,0,.226.263.263,0,0,1,.085.056a.537.537,0,0,1,.6.085,3.72,3.72,0,0,1,.511.6A5.928,5.928,0,0,1,1.7,1.5a2.677,2.677,0,0,1,.426,1.7C2.212,3.55,2.042,3.806,1.957,3.721Z" transform="translate(105.747 73.919)" fill="#455a64"/>
        <path id="Path-139" data-name="Path" d="M.032,1.907c-.085,0,0-.341.255-.853A2.762,2.762,0,0,1,.968.287,1.673,1.673,0,0,1,2.244.032,3.671,3.671,0,0,1,4.2,1.225a4.8,4.8,0,0,1,.511.767c-.085,0-.341-.171-.681-.6A3.581,3.581,0,0,0,2.244.458a1.926,1.926,0,0,0-1.7.767C.2,1.566.117,1.907.032,1.907Z" transform="translate(98.312 69.682)" fill="#455a64"/>
        <path id="Path-140" data-name="Path" d="M2.336,6.563a8.872,8.872,0,0,1-1.7-3.068A7.976,7.976,0,0,1,.039,0c.17,0,.34,1.534,1.021,3.324C1.656,5.2,2.421,6.563,2.336,6.563Z" transform="translate(98.475 85.565)" fill="#455a64"/>
        <path id="Path-141" data-name="Path" d="M1.808,4.687A6.511,6.511,0,0,1,.616,2.471,6.215,6.215,0,0,1,.021,0,13.753,13.753,0,0,1,1.042,2.3,14.754,14.754,0,0,1,1.808,4.687Z" transform="translate(101.131 88.634)" fill="#455a64"/>
        <path id="Path-142" data-name="Path" d="M2.9,0a7.9,7.9,0,0,1-.511,4.261A8.353,8.353,0,0,1,0,7.84,21.617,21.617,0,0,0,1.961,4.091,18.209,18.209,0,0,0,2.9,0Z" transform="translate(113.316 93.662)" fill="#455a64"/>
        <path id="Path-143" data-name="Path" d="M1.281,0a6.713,6.713,0,0,1,.34,3.835,6.054,6.054,0,0,1-1.616,3.5A18.619,18.619,0,0,0,1.2,3.753,19.01,19.01,0,0,0,1.281,0Z" transform="translate(117.059 90.079)" fill="#455a64"/>
        <path id="Path-144" data-name="Path" d="M35.312,31.448l4.68,44.914,3.319,67.753H61.18L61.691,0,10.551,3.58,0,79.259l9.19,66.134H28.76L24.166,82.5Z" transform="translate(76.901 192.607)" fill="#263238"/>
        <path id="Path-145" data-name="Path" d="M3.78,3.446A23.254,23.254,0,0,0,7.213.006a23.292,23.292,0,0,0-3.775,3.06A23.294,23.294,0,0,0,0,6.506,23.273,23.273,0,0,0,3.78,3.446Z" transform="translate(105.038 224.031)" fill="#455a64"/>
        <path id="Path-146" data-name="Path" d="M.226,11.591c-.085,0,0-2.557.086-5.795C.4,2.642.482,0,.652,0A30.623,30.623,0,0,1,.737,5.8,32.766,32.766,0,0,1,.226,11.591Z" transform="translate(111.987 211.527)" fill="#455a64"/>
        <path id="Path-147" data-name="Path" d="M.085.767H.34A3.16,3.16,0,0,0,1.191.681c.851,0,1.957-.085,3.4-.17C7.573.426,11.742.17,16.677,0h.171V13.209l-.171.086c-2.722,1.107-5.36,2.13-7.828,3.153h-.17c-2.468-.852-4.85-1.7-6.978-2.386H1.616v-.086C1.106,10.056.68,6.818.34,4.431.17,3.323.085,2.471,0,1.789A9.311,9.311,0,0,0,.085.767a.658.658,0,0,0,.085.255c0,.171.085.426.085.682C.34,2.386.51,3.238.68,4.346c.341,2.3.851,5.54,1.447,9.375l-.085-.171c2.127.767,4.51,1.534,6.977,2.387h-.17c2.468-1.023,5.106-2.046,7.828-3.154l-.17.171V.085l.17.17c-4.85.085-9.019.256-12,.256C3.233.511,2.127.6,1.276.6H.34A.3.3,0,0,1,.085.767Z" transform="translate(118 205.562)" fill="#455a64"/>
        <path id="Path-148" data-name="Path" d="M.51.341H1.531C2.3.341,3.318.256,4.595.256,7.317.171,11.147.086,15.656,0h.171V.171c-.086,3.75-.256,8.011-.426,12.613v.085l-.085.085a11.12,11.12,0,0,0-1.276.853c-2.213,1.449-4.425,2.9-6.467,4.261l-.085.085L7.4,18.068C4.765,16.449,2.3,15,.085,13.636L0,13.551v-.085C.17,9.545.255,6.307.34,3.921c.085-1.108.085-1.96.085-2.642A8.977,8.977,0,0,0,.51.341v3.58c0,2.3-.085,5.539-.17,9.46L.255,13.21c2.212,1.364,4.68,2.813,7.318,4.432H7.318c2.042-1.364,4.254-2.727,6.466-4.261.426-.256.851-.6,1.277-.853l-.085.171c.17-4.6.34-8.864.425-12.613l.17.17c-4.51,0-8.254.085-10.891.085H.51Z" transform="translate(91.792 206.243)" fill="#455a64"/>
        <path id="Path-149" data-name="Path" d="M16.338,2.163a12.712,12.712,0,0,1-2.383-.085c-1.446-.086-3.574-.341-5.786-.6A55.033,55.033,0,0,1,2.383.544C.936.288,0,.032,0,.032A8.22,8.22,0,0,1,2.383.288C4,.544,5.957.8,8.169,1.055s4.169.511,5.786.767A7.6,7.6,0,0,1,16.338,2.163Z" transform="translate(116.723 224.79)" fill="#455a64"/>
        <path id="Path-150" data-name="Path" d="M12.009,9.716a1.75,1.75,0,0,1-.425.6,2.64,2.64,0,0,1-1.787.6A4.3,4.3,0,0,1,7.159,9.886,22.473,22.473,0,0,1,4.691,7.415,28.4,28.4,0,0,1,1.118,2.3,9.684,9.684,0,0,1,.011,0C.1,0,.522.853,1.373,2.131A42.6,42.6,0,0,0,5.032,7.074,12.621,12.621,0,0,0,7.414,9.46,3.674,3.674,0,0,0,9.8,10.483a2.922,2.922,0,0,0,1.7-.426A2.121,2.121,0,0,0,12.009,9.716Z" transform="translate(120.626 267.349)" fill="#455a64"/>
        <path id="Path-151" data-name="Path" d="M11.33,4.858a1.1,1.1,0,0,1-.256.6A3.881,3.881,0,0,1,9.883,6.648a4.98,4.98,0,0,1-2.467.681,5.8,5.8,0,0,1-2.979-.937A10.738,10.738,0,0,1,.864,2.131,7.476,7.476,0,0,1,.013,0C.1,0,.438.767,1.2,1.96A10.649,10.649,0,0,0,4.693,5.966,6.929,6.929,0,0,0,7.416,6.9a4.815,4.815,0,0,0,2.3-.511A5.149,5.149,0,0,0,11.33,4.858Z" transform="translate(86.078 273.741)" fill="#455a64"/>
        <path id="Path-152" data-name="Path" d="M11.062.015A4.247,4.247,0,0,1,9.615.867a9.954,9.954,0,0,1-4,.853,11.178,11.178,0,0,1-4.084-.6A3.485,3.485,0,0,1,0,.356a18.784,18.784,0,0,0,5.531.852A17.125,17.125,0,0,0,11.062.015Z" transform="translate(87.452 271.851)" fill="#455a64"/>
        <path id="Path-153" data-name="Path" d="M34.547,22.329H8.509s-3.574-2.045-5.276-1.7A7.077,7.077,0,0,0,0,22.755L3.4,51.476l8.424-6.221,31.4-3.239a9.992,9.992,0,0,0,9.785-11.164L47.225,0,35.313.426,34.8,8.267Z" transform="translate(122.084 90.849)" fill="#0e1b47"/>
        <path id="Path-154" data-name="Path" d="M24.835,0a16.093,16.093,0,0,0-6.3,7.33C17.007,10.994,6.626,29.232,1.18,38.692A9.147,9.147,0,0,0,2.457,49.43c3.318,3.495,7.317,2.131,12.083.512,2.212-.682,11.912-15.681,11.912-15.681Z" transform="translate(60.149 120.422)" fill="#0e1b47"/>
        <path id="Path-155" data-name="Path" d="M5.956,72.867,0,21.476,1.446,7.84,16.678,1.278,36.334,0l18.72,2.13L50.629,54.8l4.85,29.743-52.5,2.387Z" transform="translate(83.538 112.582)" fill="#0e1b47"/>
        <path id="Path-156" data-name="Path" d="M5.886,51.22c-.085,0-1.531-11.42-3.148-25.567S-.155.085.015,0C.1,0,1.547,11.42,3.163,25.568S6.056,51.22,5.886,51.22Z" transform="translate(83.608 134.058)" fill="#263238"/>
        <path id="Path-157" data-name="Path" d="M4.084,0V.426C4.084.767,4,1.193,4,1.7q-.128,1.79-.511,4.858c-.425,4.176-1.021,9.8-1.616,16.022S.766,34.515.51,38.606C.34,40.652.255,42.271.17,43.464a7.378,7.378,0,0,0-.085,1.278c0,.341-.085.427-.085.427v-1.79c0-1.193.085-2.813.17-4.858C.425,34.43.851,28.72,1.446,22.5s1.192-11.932,1.7-16.022c.255-2.046.511-3.665.6-4.858A8.9,8.9,0,0,0,3.914.34.527.527,0,0,0,4.084,0Z" transform="translate(134.082 126.218)" fill="#263238"/>
        <path id="Path-158" data-name="Path" d="M30.378,0s-.256.341-.851,1.023A6.729,6.729,0,0,1,28.42,2.131a12.385,12.385,0,0,1-1.531,1.363,19.641,19.641,0,0,1-1.957,1.535c-.681.511-1.532,1.022-2.383,1.534a33.1,33.1,0,0,1-6.041,2.556,30.834,30.834,0,0,1-6.382,1.193C9.1,10.4,8.169,10.4,7.318,10.4a22.5,22.5,0,0,1-2.468-.171,12.645,12.645,0,0,1-2.042-.341c-.6-.085-1.106-.255-1.531-.341C.426,9.29,0,9.2,0,9.119s1.787.426,4.765.767a11.5,11.5,0,0,0,2.468.086c.851,0,1.787-.086,2.808-.086a30.1,30.1,0,0,0,6.3-1.193,34.823,34.823,0,0,0,5.956-2.471c.851-.512,1.7-.938,2.382-1.449a19.7,19.7,0,0,0,1.958-1.449A37.215,37.215,0,0,0,30.378,0Z" transform="translate(98.769 177.352)" fill="#263238"/>
        <g id="Group-19" data-name="Group" transform="translate(99 173)" opacity="0.3">
            <path id="Path-159" data-name="Path" d="M2.286,13.025C-.267,12.258-.437,9.871.584,8.849a4.44,4.44,0,0,1,4-.938,24.32,24.32,0,0,0,4.255.6c2.3-.171,4.254-1.79,5.871-3.494S17.858,1.434,19.985.5s5.1-.6,6.211,1.448a4.477,4.477,0,0,1-.255,4.262,9.844,9.844,0,0,1-3.148,3.068A25.666,25.666,0,0,1,2.286,13.025Z" transform="translate(0.121 0.958)" opacity="0.3"/>
        </g>
        <path id="Path-160" data-name="Path" d="M0,.006a7.073,7.073,0,0,1,3.4,2.727A7.488,7.488,0,0,1,4.938,6.824,15.85,15.85,0,0,0,3.066,2.989,15.229,15.229,0,0,0,0,.006Z" transform="translate(132.462 114.195)" fill="#263238"/>
        <path id="Path-161" data-name="Path" d="M47.14.434a4.416,4.416,0,0,1-.425-.255A1.907,1.907,0,0,0,45.268.093a4.5,4.5,0,0,0-1.957,1.194c-.681.6-1.191,1.448-2.127,2.215A6.769,6.769,0,0,1,37.695,4.61c-1.361.086-2.723-.085-4.254-.085a94.062,94.062,0,0,0-9.7.171A61.372,61.372,0,0,0,6.552,8.531,48.527,48.527,0,0,0,1.7,10.746c-.511.256-.936.512-1.277.682A4.326,4.326,0,0,1,0,11.684a4.326,4.326,0,0,0,.425-.256c.341-.17.766-.426,1.277-.682,1.106-.6,2.808-1.363,4.85-2.215A58.517,58.517,0,0,1,23.74,4.7a74.986,74.986,0,0,1,9.7-.171c1.531.085,2.893.171,4.254.171a6.719,6.719,0,0,0,3.489-1.023,16.673,16.673,0,0,0,2.127-2.131A4.07,4.07,0,0,1,45.268.349a2.611,2.611,0,0,1,1.447.085A.329.329,0,0,1,47.14.434Z" transform="translate(83.538 113.17)" fill="#fafafa"/>
        <path id="Path-162" data-name="Path" d="M52.245.376a1.234,1.234,0,0,0-.51-.085A7.385,7.385,0,0,0,50.2.206a10.718,10.718,0,0,0-2.382.6c-.851.341-1.872.938-2.893,1.449a13.14,13.14,0,0,1-3.659,1.534,18.529,18.529,0,0,1-4.51.682c-3.148.17-6.722.256-10.381.511C19.06,5.49,12.423,6.342,7.658,7.109,5.275,7.45,3.4,7.876,2.042,8.132A14.274,14.274,0,0,1,.51,8.387,2.378,2.378,0,0,1,0,8.472a1.234,1.234,0,0,1,.51-.085c.426-.085.936-.17,1.532-.341C3.4,7.791,5.275,7.365,7.658,7.024c4.765-.767,11.317-1.7,18.72-2.216,3.659-.256,7.147-.341,10.381-.512a22.922,22.922,0,0,0,4.425-.681,13.725,13.725,0,0,0,3.573-1.534A22.918,22.918,0,0,1,47.65.632a9.71,9.71,0,0,1,2.383-.6A4.09,4.09,0,0,1,51.565.12,6.2,6.2,0,0,1,52.245.376Z" transform="translate(84.304 123.796)" fill="#fafafa"/>
        <path id="Path-163" data-name="Path" d="M51.224,0a18.454,18.454,0,0,1-1.872.767c-1.191.512-3.063,1.108-5.275,1.79A79.217,79.217,0,0,1,25.953,5.284a170.669,170.669,0,0,1-18.38-.426c-2.3-.17-4.169-.341-5.531-.426-.6-.085-1.106-.085-1.532-.17A1.221,1.221,0,0,1,0,4.176H.51c.426,0,.936.086,1.532.086,1.362.085,3.234.255,5.531.34,4.68.256,11.232.682,18.38.427A79.8,79.8,0,0,0,44.077,2.387c2.3-.6,4.084-1.279,5.275-1.705A10.125,10.125,0,0,1,50.8.171.855.855,0,0,1,51.224,0Z" transform="translate(85.41 138.66)" fill="#fafafa"/>
        <path id="Path-164" data-name="Path" d="M47.65,0s-.6.256-1.786.682A34.849,34.849,0,0,1,40.843,1.96a46.206,46.206,0,0,1-7.573.768c-2.893.085-6.041,0-9.36-.171C17.273,2.131,11.317,1.62,6.977,1.79c-2.212.085-3.914.17-5.105.341-.6.085-1.107.17-1.362.17A1.221,1.221,0,0,0,0,2.387a38.216,38.216,0,0,1,6.977-.682c4.34-.171,10.381.255,16.933.682,3.319.17,6.467.255,9.36.17a46.215,46.215,0,0,0,7.573-.767A40.4,40.4,0,0,0,45.864.6c.6-.171,1.021-.341,1.361-.426A3.462,3.462,0,0,0,47.65,0Z" transform="translate(87.027 155.364)" fill="#fafafa"/>
        <path id="Path-165" data-name="Path" d="M44.673,0S42.29.767,38.291,1.705c-1.957.426-4.34.937-7.063,1.364a83.756,83.756,0,0,1-8.764.937c-3.148.17-6.041.17-8.764.17q-4.084-.128-7.148-.511C2.468,3.239,0,2.728,0,2.728a1.5,1.5,0,0,1,.426.085c.34.085.765.085,1.276.17,1.106.171,2.808.341,4.765.6,2.042.17,4.425.341,7.148.426s5.7,0,8.764-.17A84.86,84.86,0,0,0,31.058,2.9c2.638-.426,5.021-.852,7.063-1.278C40.078,1.194,41.695.767,42.8.512c.51-.171.936-.256,1.276-.341A1.916,1.916,0,0,1,44.673,0Z" transform="translate(88.388 168.318)" fill="#fafafa"/>
        <path id="Path-166" data-name="Path" d="M45.184,0a3.642,3.642,0,0,1-.426.17c-.34.085-.766.256-1.276.426-1.106.426-2.723,1.023-4.595,1.875-1.957.853-4.255,1.96-6.807,2.983A47.191,47.191,0,0,1,23.4,8.1a78.312,78.312,0,0,1-16.507.938c-2.127-.086-3.829-.171-5.021-.256-.51,0-1.021-.085-1.361-.085A1.23,1.23,0,0,1,0,8.607H.511a8.191,8.191,0,0,1,1.361.086c1.277.085,2.979.085,5.021.255a77.208,77.208,0,0,0,16.422-.937A47.268,47.268,0,0,0,32,5.369c2.552-1.023,4.85-2.131,6.807-2.983S42.376.937,43.482.511C44.588.17,45.184,0,45.184,0Z" transform="translate(89.664 173.006)" fill="#fafafa"/>
        <path id="Path-167" data-name="Path" d="M49.267,0a17.441,17.441,0,0,1-1.7,1.023A36.556,36.556,0,0,1,42.63,3.239,55.665,55.665,0,0,1,25.1,6.221c-6.978.086-13.274-.426-17.784-.6-2.3-.085-4.085-.171-5.361-.171h0c1.276,0,3.148.086,5.361.171,4.6.17,10.891.682,17.784.6a53,53,0,0,0,17.443-2.9A36.406,36.406,0,0,0,47.48,1.108c.6-.256,1.022-.6,1.277-.682A2.394,2.394,0,0,1,49.267,0Z" transform="translate(88.218 187.153)" fill="#fafafa"/>
        <path id="Path-168" data-name="Path" d="M.341,21.159A.664.664,0,0,1,.426,20.9c.085-.17.085-.426.17-.6a17.916,17.916,0,0,0,.511-2.216,31.311,31.311,0,0,0,.68-7.5,39.689,39.689,0,0,0-.936-7.5C.6,2.154.426,1.387.256.875a5.442,5.442,0,0,0-.17-.6C.086.108,0,.108,0,.023S0,.108.086.194a1.233,1.233,0,0,1,.17.6c.17.512.425,1.279.68,2.216a33.218,33.218,0,0,1,1.022,7.5,36.617,36.617,0,0,1-.766,7.585c-.256.937-.426,1.7-.6,2.216a2.167,2.167,0,0,0-.17.6C.426,21.159.426,21.159.341,21.159Z" transform="translate(145.058 113.922)" fill="#fafafa"/>
        <path id="Path-169" data-name="Path" d="M4.254,18.323v-.767a16.176,16.176,0,0,0,0-2.046,30.01,30.01,0,0,0-.765-6.647A32.435,32.435,0,0,0,1.276,2.471,16.2,16.2,0,0,0,.34.681L.085.17A.263.263,0,0,1,0,0,.3.3,0,0,1,.085.17L.34.681a16.2,16.2,0,0,1,.936,1.79A30.571,30.571,0,0,1,3.489,8.863,30.7,30.7,0,0,1,4.254,15.6a13.9,13.9,0,0,1-.085,2.045,1.672,1.672,0,0,1-.085.6C4.254,18.238,4.254,18.323,4.254,18.323Z" transform="translate(153.823 113.69)" fill="#fafafa"/>
        <path id="Path-170" data-name="Path" d="M18.327,13.124l-.17-.17c-.17-.171-.255-.341-.425-.511-.341-.427-.936-1.108-1.617-1.875a39.794,39.794,0,0,0-6.041-5.284A39.061,39.061,0,0,0,3.1,1.278,18.679,18.679,0,0,0,.8.341,4.269,4.269,0,0,1,.2.085C.033,0-.052,0,.033,0A.658.658,0,0,1,.288.085c.17.085.426.17.6.256.51.17,1.361.511,2.3.937a42.528,42.528,0,0,1,7.063,4.006,40.215,40.215,0,0,1,6.041,5.369c.681.767,1.277,1.449,1.617,1.875.17.17.255.341.425.511C18.242,13.039,18.327,13.124,18.327,13.124Z" transform="translate(156.768 113.008)" fill="#fafafa"/>
        <path id="Path-171" data-name="Path" d="M13.614.5H6.807C4.935.5,3.148.586,1.957.67,1.446.67.936.756.51.756H0A2.378,2.378,0,0,0,.51.67,12.717,12.717,0,0,0,1.957.5C3.233.414,4.935.329,6.807.244c1.872,0,3.659,0,4.85.085.6,0,1.106.085,1.447.085A2.353,2.353,0,0,0,13.614.5Z" transform="translate(157.567 101.428)" fill="#fafafa"/>
        <path id="Path-172" data-name="Path" d="M0,0,.34.341c.17.255.51.511.851.937A28.287,28.287,0,0,0,4.339,3.92,38.89,38.89,0,0,0,7.913,6.051c.425.17.766.426,1.106.6a4.255,4.255,0,0,0,.426.256,3.739,3.739,0,0,0-.426-.171,7.4,7.4,0,0,1-1.106-.6A38.664,38.664,0,0,1,4.339,4.005,18.085,18.085,0,0,1,1.191,1.278,11.357,11.357,0,0,0,.34.341,1.025,1.025,0,0,1,0,0Z" transform="translate(74.774 135.763)" fill="#fafafa"/>
        <path id="Path-173" data-name="Path" d="M.022,0a5.281,5.281,0,0,0,.6.682,16.922,16.922,0,0,0,1.7,1.363A11.791,11.791,0,0,0,4.192,3.153c.51.256.851.426.766.426A8.563,8.563,0,0,1,2.15,2.13,10.566,10.566,0,0,1,.448.682C.108.341-.063,0,.022,0Z" transform="translate(78.41 128.945)" fill="#fafafa"/>
        <path id="Path-174" data-name="Path" d="M14.125,13.721a.263.263,0,0,1-.17-.085l-.511-.256c-.425-.255-1.106-.6-1.872-1.108A31.236,31.236,0,0,1,6.041,7.841,29.908,29.908,0,0,1,1.446,2.472,13.063,13.063,0,0,1,.34.682L.085.171A.267.267,0,0,1,0,0,.3.3,0,0,1,.085.171a1.8,1.8,0,0,0,.34.511c.256.426.681,1.023,1.192,1.79A34.165,34.165,0,0,0,6.3,7.756a41.725,41.725,0,0,0,5.53,4.431c.766.512,1.362.852,1.787,1.108a1.773,1.773,0,0,1,.511.341C14.04,13.721,14.125,13.721,14.125,13.721Z" transform="translate(70.349 144.285)" fill="#fafafa"/>
        <path id="Path-175" data-name="Path" d="M.256,22.5s-.085-.341-.17-.938A23.072,23.072,0,0,1,0,18.835a16.489,16.489,0,0,1,2.808-8.352c1.787-2.9,3.489-5.54,4.766-7.5C8.169,2.131,8.68,1.364,9.02.767A5.433,5.433,0,0,1,9.616,0L9.19.853c-.34.6-.851,1.363-1.361,2.3-1.191,1.96-2.808,4.6-4.6,7.5A18.292,18.292,0,0,0,.341,18.835C.171,21.051.341,22.5.256,22.5Z" transform="translate(60.563 144.37)" fill="#263238"/>
        <path id="Path-176" data-name="Path" d="M13.194,13.21a14.187,14.187,0,0,1-2.979-.427A13.523,13.523,0,0,1,4,9.2,14.377,14.377,0,0,1,.43,2.983,9.5,9.5,0,0,1,.005,0V.17a1.669,1.669,0,0,0,.085.6A15.493,15.493,0,0,0,.515,2.9,15.065,15.065,0,0,0,4.089,9.034a14.5,14.5,0,0,0,6.126,3.579,8.4,8.4,0,0,0,2.128.426c.255,0,.425.085.595.085A.658.658,0,0,0,13.194,13.21Z" transform="translate(62.516 157.069)" fill="#fafafa"/>
        <path id="Path-177" data-name="Path" d="M10.806,0a.263.263,0,0,0-.17.085c-.17.085-.255.171-.425.256-.426.256-.936.6-1.617,1.023a25.2,25.2,0,0,0-4.51,4.261A23.377,23.377,0,0,0,.936,10.994c-.34.767-.511,1.364-.681,1.79-.085.17-.085.341-.17.511A.3.3,0,0,1,0,13.466V13.3a1.212,1.212,0,0,1,.17-.511c.085-.426.34-1.023.6-1.79A21.979,21.979,0,0,1,3.914,5.54,18.735,18.735,0,0,1,8.509,1.278C9.19.852,9.7.511,10.126.256A1.893,1.893,0,0,0,10.551,0Z" transform="translate(56.309 141.217)" fill="#fafafa"/>
        <path id="Path-178" data-name="Path" d="M10.04,0a2.684,2.684,0,0,1-.51.171A6.582,6.582,0,0,0,8.253.682,13.374,13.374,0,0,0,4.339,3.069,18.436,18.436,0,0,0,1.191,6.392C.851,6.818.51,7.245.34,7.5A3.044,3.044,0,0,1,0,7.926,4.489,4.489,0,0,1,.255,7.5c.17-.255.425-.682.766-1.108A21.793,21.793,0,0,1,4.169,2.983,13.67,13.67,0,0,1,8.168.6C8.764.427,9.189.256,9.53.171A1.31,1.31,0,0,1,10.04,0Z" transform="translate(52.31 134.91)" fill="#fafafa"/>
    </g>
</svg>
