<svg xmlns="http://www.w3.org/2000/svg" width="294.022" height="340.083" viewBox="0 0 294.022 340.083">
    <g id="Illustration" transform="translate(-0.979 0)">
        <path id="Path" d="M68.035.36S61.6-3.188,55.335,11.993s-8.412,23.761-8.412,23.761-1.732,3.218-3.958,1.4-5.526-7.26-9.072-5.94c-3.628,1.32-4.535,5.528-3.3,11.55,1.154,6.023,3.3,19.224,3.463,20.461.165,1.155-.33,2.971-2.062,1.981S19.956,54.4,15.585,59.6s1.65,21.369,2.309,23.1c.66,1.815.33,2.558-.494,3.136-.825.495-3.959-3.136-7.01-5.776S3.38,74.862,1.071,78c-2.227,3.217-2.062,15.675,11.3,34.9l6.762,8.5,10.8-1.485c23.008-4.538,31.833-13.366,32.41-17.244S58.3,97.88,54.263,97.633c-4.041-.165-8.824.247-9.072-.743-.247-.907.083-1.732,1.815-2.557,1.649-.826,17.236-8.333,17.73-15.016.413-6.766-13.772-6.848-15.669-7.343-1.979-.5-1.072-2.145-.164-2.888.989-.742,11.71-8.828,16.658-12.293,5.031-3.465,7.34-7.178,5.608-10.643-1.567-3.383-7.752-1.733-10.638-1.98s-1.9-3.713-1.9-3.713,4.453-7.673,10.473-22.936S67.87.36,67.87.36" transform="translate(199.008 51.535)" fill="#ebebeb"/>
        <path id="Path-2" data-name="Path" d="M0,105.193C4.453,93.972,10.721,78.626,17.73,61.631S31.008,29.289,35.544,18.068C37.77,12.458,39.585,8,40.9,4.868c.66-1.568,1.155-2.723,1.485-3.631C42.554.825,42.718.5,42.8.33A.887.887,0,0,1,42.966,0a1.3,1.3,0,0,1-.083.33,6.225,6.225,0,0,1-.33.907c-.329.825-.824,2.063-1.4,3.631-1.237,3.135-2.969,7.673-5.2,13.283C31.5,29.371,25.235,44.717,18.225,61.713S4.948,94.055.412,105.275" transform="translate(218.552 65.426)" fill="#e0e0e0"/>
        <path id="Path-3" data-name="Path" d="M.03,0A3.4,3.4,0,0,1,.36.743c.165.5.495,1.155.742,1.98.66,1.732,1.4,4.043,2.309,6.683.825,2.557,1.567,4.95,2.144,6.765.248.825.495,1.485.66,2.063q.247.743.248.742a3.374,3.374,0,0,1-.33-.742c-.165-.495-.495-1.155-.742-1.981-.578-1.732-1.4-4.042-2.227-6.682C2.339,7.013,1.6,4.62,1.02,2.888.772,2.063.525,1.4.36.825.03.248-.052,0,.03,0Z" transform="translate(237.242 90.507)" fill="#e0e0e0"/>
        <path id="Path-4" data-name="Path" d="M10.755,3.9C4.783,6.137-.032,8.02,0,8.1s4.9-1.659,10.871-3.9S21.657.089,21.625,0,16.726,1.662,10.755,3.9Z" transform="translate(244.635 101.453)" fill="#e0e0e0"/>
        <path id="Path-5" data-name="Path" d="M0,2.31a2.917,2.917,0,0,1,.825-.083c.577-.082,1.32-.082,2.144-.165,1.815-.165,4.371-.33,7.175-.66s5.278-.66,7.175-.99c.824-.165,1.567-.247,2.144-.33A5.589,5.589,0,0,1,20.288,0l-.743.247C19.051.33,18.308.5,17.4.66c-1.814.33-4.371.742-7.175,1.072s-5.36.5-7.174.578c-.907,0-1.65.082-2.227.082A6.757,6.757,0,0,0,0,2.31Z" transform="translate(232.736 132.832)" fill="#e0e0e0"/>
        <path id="Path-6" data-name="Path" d="M0,0S.165.165.5.577c.247.413.659.908,1.154,1.65.99,1.4,2.309,3.3,3.794,5.446S8.247,11.8,9.154,13.2c.495.743.824,1.32,1.072,1.733s.412.66.33.66c0,0-.165-.165-.495-.578-.247-.412-.66-.907-1.155-1.65-.989-1.4-2.309-3.3-3.793-5.445S2.309,3.8,1.4,2.392C.907,1.65.577,1.072.33.66A3.736,3.736,0,0,1,0,0Z" transform="translate(222.263 119.384)" fill="#e0e0e0"/>
        <path id="Path-7" data-name="Path" d="M.021,0A5.283,5.283,0,0,1,.6.742c.413.578.907,1.238,1.567,2.063,1.32,1.732,3.051,4.208,4.948,7.013,1.9,2.722,3.629,5.2,4.866,7.013.577.825,1.072,1.567,1.4,2.145a8.572,8.572,0,0,1,.495.825,5.289,5.289,0,0,1-.578-.743c-.412-.577-.907-1.237-1.567-2.062-1.319-1.733-3.051-4.208-4.948-7.013-1.9-2.723-3.628-5.2-4.865-7.013C1.34,2.145.846,1.4.516.825.1.247-.062,0,.021,0Z" transform="translate(208.882 140.67)" fill="#e0e0e0"/>
        <path id="Path-8" data-name="Path" d="M0,3.8A9.506,9.506,0,0,1,.99,3.63c.742-.082,1.649-.165,2.721-.33,2.309-.247,5.526-.66,9.072-1.155S19.463,1.073,21.772.66q1.608-.248,2.721-.5A9.168,9.168,0,0,0,25.483,0l-.99.248c-.659.165-1.567.33-2.721.577-2.309.5-5.443,1.073-8.989,1.568S6.02,3.218,3.711,3.465c-1.154.083-2.144.165-2.8.165A3.682,3.682,0,0,1,0,3.8Z" transform="translate(222.51 156.098)" fill="#e0e0e0"/>
        <path id="Shape" d="M24.761,71.233,7.938,48.956c-1.4-1.98-2.8-3.3-3.876-5.2l-.083-.084A28.988,28.988,0,0,1,23.441.526a28.986,28.986,0,0,1,30.6,43.068l-.083.082c-1.155,1.9-4.206,5.611-4.206,5.611L33.09,71.233a5.174,5.174,0,0,1-8.33,0Z" transform="translate(0.979 114.896)" fill="#f5f5f5"/>
        <path id="Path-9" data-name="Path" d="M46.469,76.657C57.6,68.984,60.159,54.546,59.747,41.675c-.083-2.145.165-4.455-.825-6.353s-3.381-3.217-5.361-2.31c-1.566.743-2.309,2.64-3.216,4.125a12.43,12.43,0,0,1-5.113,4.786,4.784,4.784,0,0,1-4.453.412c-1.9-1.073-2.062-3.63-2.062-5.775,0-3.96.082-8,.082-11.963a20.323,20.323,0,0,0-.66-6.353,6.643,6.643,0,0,0-4.206-4.538A4.062,4.062,0,0,0,28.9,16.429c-.165.907,0,1.815-.083,2.64A2.341,2.341,0,0,1,27.5,21.214a2.64,2.64,0,0,1-2.392-.99A27.531,27.531,0,0,1,20,12.468a37.371,37.371,0,0,0-4.783-8C13.234,2.073,10.43.175,7.379.01S1.029,1.743.2,4.713c-.825,3.053.99,6.105,2.886,8.581a49.492,49.492,0,0,0,9.9,9.57,3.9,3.9,0,0,1,1.649,1.815c.495,1.4-.907,2.888-2.309,3.3-1.567.5-3.3.33-5.031.578-1.649.165-3.464.907-4.123,2.475-.907,2.228.907,4.455,2.721,6.023a39.787,39.787,0,0,0,12.123,7.013,13.672,13.672,0,0,1,4.536,2.227c1.237,1.155,2.062,3.053,1.237,4.538-.742,1.485-2.721,1.98-4.371,1.65a32.473,32.473,0,0,1-4.7-1.815c-2.969-1.155-6.762-.908-8.659,1.568a6.742,6.742,0,0,0-.742,6.022,16.533,16.533,0,0,0,3.216,5.281A41.427,41.427,0,0,0,26.1,76C33.357,78.389,39.707,79.132,46.469,76.657Z" transform="translate(12.836 259.713)" fill="#d12028"/>
        <path id="Path-10" data-name="Path" d="M42.059,78.462c-.412-5.115-.66-5.2-2.557-11.716a189.175,189.175,0,0,0-7.587-20.708c-.742-1.815-1.485-3.548-2.227-5.363-.742-1.733-1.484-3.465-2.309-5.115-1.649-3.3-3.464-6.353-5.278-9.241s-3.629-5.527-5.443-7.92c-1.732-2.475-3.381-4.7-5.031-6.683A84.632,84.632,0,0,0,3.381,2.888C2.309,1.9,1.484,1.238.907.743.66.5.412.33.247.165A1,1,0,0,1,0,0,1,1,0,0,0,.247.165a5.417,5.417,0,0,0,.66.578c.577.5,1.4,1.238,2.392,2.228a79.244,79.244,0,0,1,8.164,8.91c1.567,1.98,3.216,4.29,4.948,6.683,1.732,2.475,3.546,5.115,5.36,7.92a95.5,95.5,0,0,1,5.278,9.158c.825,1.65,1.567,3.383,2.309,5.116s1.485,3.547,2.227,5.362a189.134,189.134,0,0,1,7.587,20.709c1.9,6.518,2.144,6.6,2.639,11.716" transform="translate(16.504 261.538)" fill="#263238"/>
        <path id="Path-11" data-name="Path" d="M0,23.513s.082-.33.247-.907c.082-.578.247-1.485.412-2.558.33-2.145.66-5.115.99-8.333.33-3.3.742-6.188,1.072-8.333.165-1.072.33-1.9.412-2.475S3.3,0,3.216,0c0,0-.082.33-.247.907s-.33,1.4-.577,2.475C1.979,5.527,1.567,8.5,1.237,11.715S.577,17.9.33,20.131c-.082.99-.247,1.815-.247,2.557A5.562,5.562,0,0,0,0,23.513Z" transform="translate(43.719 273.502)" fill="#263238"/>
        <path id="Path-12" data-name="Path" d="M0,0S.412.083,1.072.165C1.814.248,2.8.33,4.041.5c2.557.248,6.02.825,9.814,1.485,3.793.743,7.257,1.568,9.649,2.228,1.237.33,2.227.577,2.886.825.66.165,1.072.33,1.072.247,0,0-.33-.165-.99-.412s-1.649-.578-2.886-.908c-2.474-.742-5.855-1.567-9.649-2.31A84.313,84.313,0,0,0,4.123.248C2.886.165,1.814.083,1.072.083A9.521,9.521,0,0,0,0,0Z" transform="translate(16.174 291.735)" fill="#263238"/>
        <path id="Path-13" data-name="Path" d="M0,35.147a.911.911,0,0,0,.165-.33c.165-.248.247-.578.495-.99.412-.908.99-2.145,1.649-3.713,1.319-3.135,3.051-7.59,4.865-12.458s3.464-9.323,4.784-12.541c.659-1.567,1.154-2.8,1.484-3.795.165-.412.33-.742.412-.99s.165-.33.083-.33a.9.9,0,0,0-.165.33c-.165.248-.248.578-.495.99-.412.908-.99,2.145-1.649,3.713-1.32,3.135-3.052,7.59-4.866,12.458S3.3,26.814,1.979,30.032C1.319,31.6.825,32.837.495,33.827c-.165.412-.33.742-.412.99A1.3,1.3,0,0,0,0,35.147Z" transform="translate(55.677 292.56)" fill="#263238"/>
        <path id="Path-14" data-name="Path" d="M0,0A.913.913,0,0,0,.33.165,8.725,8.725,0,0,0,1.4.5c.99.33,2.309.742,3.958,1.32,3.3,1.072,7.834,2.64,12.865,4.373s9.566,3.217,12.948,4.29c1.649.495,3.051.907,3.958,1.155a8.39,8.39,0,0,1,1.072.33,1.451,1.451,0,0,0,.412.082.913.913,0,0,0-.33-.165,8.725,8.725,0,0,0-1.072-.33c-.99-.33-2.309-.742-3.958-1.32-3.3-1.072-7.835-2.64-12.865-4.372S8.824,2.64,5.443,1.567C3.793,1.072,2.392.66,1.484.412A8.4,8.4,0,0,1,.412.082,1,1,0,0,1,0,0Z" transform="translate(19.061 315.744)" fill="#263238"/>
        <path id="Path-15" data-name="Path" d="M140.361,340H25.565A26.117,26.117,0,0,1,0,314.259L1.237,25.081A25.152,25.152,0,0,1,26.472,0L141.763.5a25.136,25.136,0,0,1,24.988,25.246l-1.237,289.178A25.082,25.082,0,0,1,140.361,340Z" transform="translate(52.873 0)" fill="#263238"/>
        <path id="Path-16" data-name="Path" d="M133.846.331,111.5.248a5.6,5.6,0,0,0-5.443,5.693V9.984a5.6,5.6,0,0,1-5.443,5.692l-43.543-.165a5.6,5.6,0,0,1-5.443-5.692V5.776A5.549,5.549,0,0,0,46.182.083H38.348L18.8,0A17.531,17.531,0,0,0,1.154,17.491L0,299.739a17.584,17.584,0,0,0,17.483,17.655l115.043.495a17.531,17.531,0,0,0,17.649-17.49l1.154-282.247A17.517,17.517,0,0,0,133.846.331Z" transform="translate(60.625 11.22)" fill="#f5f5f5"/>
        <path id="Path-17" data-name="Path" d="M.33.908C.165,4.29.082,7.508,0,10.148H16.493L14.432,0Z" transform="translate(145.32 274.739)" fill="#f5f5f5"/>
        <path id="Path-18" data-name="Path" d="M0,4.125.165,9.158H65.15c.083-2.8.248-5.941.33-9.158Z" transform="translate(78.52 275.812)" fill="#f5f5f5"/>
        <path id="Path-19" data-name="Path" d="M0,2.062,2.062,12.21h30.43L32.163,0Z" transform="translate(160.659 272.677)" fill="#f5f5f5"/>
        <path id="Path-20" data-name="Path" d="M9.319,34.569l5.773-33.5L0,0V34.569Z" transform="translate(137.98 97.438)" fill="#f5f5f5"/>
        <path id="Path-21" data-name="Path" d="M16.411,0,.083,6.353,0,17.986l16.906-1.072Z" transform="translate(60.707 261.373)" fill="#f5f5f5"/>
        <path id="Path-22" data-name="Path" d="M16.246,42.077l-.907-31.1V0L.165,1.568,0,48.43Z" transform="translate(60.79 216.656)" fill="#f5f5f5"/>
        <path id="Path-23" data-name="Path" d="M15.174,2.062.164,0,0,25.659l15.174-1.65Z" transform="translate(60.955 190.09)" fill="#f5f5f5"/>
        <path id="Path-24" data-name="Path" d="M18.391.413l-.66,8.91L0,11.3l1.32,7.013,20.2-1.485L21.277,6.683,22.844,0Z" transform="translate(170.06 216.656)" fill="#f5f5f5"/>
        <path id="Path-25" data-name="Path" d="M1.238,16.913l14.184-1.072L12.371,0,0,1.237Z" transform="translate(155.133 219.214)" fill="#f5f5f5"/>
        <path id="Path-26" data-name="Path" d="M0,2.64l1.073,13.2,1.9,18.151.825,3.96L36.2,35.889,35.132,0Z" transform="translate(156.535 235.137)" fill="#f5f5f5"/>
        <path id="Shape-2" data-name="Shape" d="M15.834,57.753l24.989-14.6L39.585,41,15.175,55.2,0,53.216.165,7.343,40.328,0H86.1l1.65,20.049L40.163,24.587l.165,1.65L87.912,21.7l3.134,38.364-48.079-6.27-.33,2.475,48.575,6.353,1.9,22.689L42.224,90.425l-26.391,1.9Z" transform="translate(61.119 134.399)" fill="#f5f5f5"/>
        <path id="Path-27" data-name="Path" d="M18.473,0,0,1.9,1.4,9.075,17.979,7.26Z" transform="translate(168.328 217.234)" fill="#f5f5f5"/>
        <path id="Path-28" data-name="Path" d="M.165,0C.083,1.485.083,2.971,0,4.456l13.772-.908L13.03,0Z" transform="translate(145.732 269.541)" fill="#f5f5f5"/>
        <path id="Path-29" data-name="Path" d="M55.007,38.942,57.4,27.886H75.871V4.29L18.143,0V22.193L.083,26.236,0,46.2l40-7.26Z" transform="translate(61.284 93.065)" fill="#f5f5f5"/>
        <path id="Path-30" data-name="Path" d="M17.978,39.6l-.5-2.063L39.5,28.794,25.152,0c-.247,0-.494.082-.824.082L0,0,.659,40.344Z" transform="translate(136.826 26.649)" fill="#f5f5f5"/>
        <path id="Path-31" data-name="Path" d="M23.915,39.437V.082L7.834,0A5.6,5.6,0,0,0,2.391,5.692V9.735A5.522,5.522,0,0,1,0,14.355L14.349,43.149Z" transform="translate(164.288 11.386)" fill="#f5f5f5"/>
        <path id="Shape-3" data-name="Shape" d="M0,37.044,7.422,0l17.4.082h4.453l1.9,41.417Z" transform="translate(74.15 11.056)" fill="#f5f5f5"/>
        <path id="Path-32" data-name="Path" d="M1.979,41.5v.33c0,3.217.083,9.075.165,15.263l30.349-1.238-.66-40.344-18.391-.083A5.6,5.6,0,0,1,8,9.736V5.693A5.548,5.548,0,0,0,2.557,0H0Z" transform="translate(104.168 11.138)" fill="#f5f5f5"/>
        <path id="Path-33" data-name="Path" d="M9.978,36.631,17.318,0A17.5,17.5,0,0,0,.082,17.49L0,35.806l.082-.577Z" transform="translate(61.697 11.056)" fill="#f5f5f5"/>
        <path id="Path-34" data-name="Path" d="M15.586,1.155.165,0,0,25.081l15.586-3.548Z" transform="translate(61.367 91.745)" fill="#f5f5f5"/>
        <path id="Path-35" data-name="Path" d="M9.979,1.4.165,0,0,40.51l2.062.165Z" transform="translate(61.532 47.11)" fill="#f5f5f5"/>
        <path id="Path-36" data-name="Path" d="M25.731,32.506,26.06,0,0,1.815.99,33.744Z" transform="translate(76.953 225.732)" fill="#f5f5f5"/>
        <path id="Path-37" data-name="Path" d="M1.237,30.2,38.018,47.852c.412-11.55.824-22.276.824-23.018l.825-.083.412-.742c.5.247.5.247.248,8.085-.165,4.373-.33,10.231-.577,16.088h12.7l-1.9-17.656L48.079,0,0,4.868Z" transform="translate(106.23 220.534)" fill="#f5f5f5"/>
        <path id="Path-38" data-name="Path" d="M44.533,4.29,44.121,0,0,4.62,1.9,27.226,40,23.349Z" transform="translate(153.154 192.4)" fill="#f5f5f5"/>
        <path id="Path-39" data-name="Path" d="M18.308,0H1.815L0,8.581H18.308Z" transform="translate(118.847 123.426)" fill="#f5f5f5"/>
        <path id="Shape-4" data-name="Shape" d="M0,9.736,1.65,0,42.884,2.888l2.391,23.844L1.732,30.939Z" transform="translate(148.041 123.426)" fill="#f5f5f5"/>
        <path id="Path-40" data-name="Path" d="M45.357,18.729,43.543,0,0,4.126,1.566,24.092Z" transform="translate(149.856 151.89)" fill="#f5f5f5"/>
        <path id="Path-41" data-name="Path" d="M16.989,0,.083,1.072,0,0V4.95H17.071Z" transform="translate(60.707 279.937)" fill="#f5f5f5"/>
        <path id="Path-42" data-name="Path" d="M22.6,29.949l.247.66.083-12.953A17.585,17.585,0,0,0,5.442,0H0V39.024Z" transform="translate(189.111 11.551)" fill="#f5f5f5"/>
        <path id="Shape-5" data-name="Shape" d="M0,35.559v-.742l25.565-1.238L25.813.165,27.38,0,28.7,25.824,66.3,43.81c-.083,1.567-.083,3.218-.165,4.868L.5,52.8Z" transform="translate(77.943 225.484)" fill="#f5f5f5"/>
        <path id="Path-43" data-name="Path" d="M21.689,32.176l1.567-9.158C9.732,18.316,8.824,4.207,8.824,0L0,3.465,13.278,30.031Z" transform="translate(179.379 52.638)" fill="#f5f5f5"/>
        <path id="Path-44" data-name="Path" d="M1.319,18.068l18.308-1.9L16,0,0,1.98Z" transform="translate(151.67 176.477)" fill="#f5f5f5"/>
        <path id="Path-45" data-name="Path" d="M40.9.247H6.763L3.876,0,0,22.441l40.657,2.805-.989-9.736L43.709,1.072Z" transform="translate(150.02 98.593)" fill="#f5f5f5"/>
        <path id="Shape-6" data-name="Shape" d="M7.174,37.7,0,8.251,20.864,0,34.306,26.979,33.894,37.7Z" transform="translate(156.206 57.01)" fill="#f5f5f5"/>
        <path id="Path-46" data-name="Path" d="M0,8.993.577,30.031l14.844-.825.083.825L.659,30.856,1.4,56.02l14.019-.908.083,1.65-14.02.908.33,12.458H15.5L15.751,0,1.814,1.4Z" transform="translate(195.461 214.759)" fill="#f5f5f5"/>
        <path id="Path-47" data-name="Path" d="M39.173,4.537,7.752,0,0,39.107l39.337,2.887C39.5,36.054,39.337,17.573,39.173,4.537Z" transform="translate(66.15 48.843)" fill="#f5f5f5"/>
        <path id="Path-48" data-name="Path" d="M19.38,27.639h4.783L17.4,0,0,.742.412,26.236Z" transform="translate(137.568 67.076)" fill="#f5f5f5"/>
        <path id="Path-49" data-name="Path" d="M0,23.1l30.843,2.31L30.431,0,.083,1.238C.083,9.819.083,18.976,0,23.1Z" transform="translate(106.312 67.818)" fill="#f5f5f5"/>
        <path id="Path-50" data-name="Path" d="M26.885,0,0,3.383,3.629,19.554l24.905-2.64Z" transform="translate(168.493 173.011)" fill="#f5f5f5"/>
        <path id="Path-51" data-name="Path" d="M13.7,31.682l1.732-10.231,7.422.578L22.939,0,.013,9.076C-.4,24.587,9.332,30.032,13.7,31.682Z" transform="translate(189.015 43.232)" fill="#f5f5f5"/>
        <path id="Path-52" data-name="Path" d="M0,13.53l.907,9.653L17.73,24.421l.083-19.966L3.711,0Z" transform="translate(193.894 100.903)" fill="#f5f5f5"/>
        <path id="Path-53" data-name="Path" d="M4.371,4.7,0,23.019l13.773-1.4V2.393C9.567,1.32,5.856.413,3.876,0Z" transform="translate(197.522 192.317)" fill="#f5f5f5"/>
        <path id="Path-54" data-name="Path" d="M0,9.736l19.133,6.023.082-10.891L.413,0Z" transform="translate(192.574 85.309)" fill="#f5f5f5"/>
        <path id="Path-55" data-name="Path" d="M3.711,39.767c1.567.248,4.453.825,10.144,2.31L14.019,0,0,1.32Z" transform="translate(197.44 150.075)" fill="#f5f5f5"/>
        <path id="Path-56" data-name="Path" d="M2.227,23.184l14.267-1.4.082-20.626L0,0Z" transform="translate(195.048 126.644)" fill="#f5f5f5"/>
        <path id="Path-57" data-name="Path" d="M0,9.076a66.592,66.592,0,0,0,7.5,1.9L7.587.5,1.567,0Z" transform="translate(204.285 66.333)" fill="#f5f5f5"/>
        <path id="Path-58" data-name="Path" d="M0,8.993l9.154,2.392V1.98Q5.567,1.238,1.485,0Z" transform="translate(202.635 76.234)" fill="#f5f5f5"/>
        <path id="Shape-7" data-name="Shape" d="M101.106,273.749,99.045,263.6l-14.185.908c-.082,3.382-.247,6.6-.33,9.24H82.881c.082-2.805.165-5.94.33-9.158l-65.563,4.125.165,5.034h-.824l-.166-4.95L.083,269.954,0,268.881V268.3l16.906-1.074-.495-17L0,256.671v-2.64l16.246-6.353-.907-31.1V205.6L.165,207.251v-2.475l15.174-1.568V181.179L.247,179.2v-2.475l15.176,1.98,24.41-14.273,1.237,2.145-24.988,14.6v34.57l26.39-1.9,50.883-5.115-1.9-22.689-48.574-6.353.33-2.475,48.079,6.271-3.135-38.365-47.584,4.538-.165-1.65,47.584-4.538-1.649-20.049H40.575L.412,130.769v-2.557l39.915-7.261H55.336l2.392-10.973H76.2v-23.6l-57.728-4.29v22.193L.412,108.328v-2.557L16,102.223V81.844L.577,80.689V76.564l2.145.165,7.917-39.271-9.814-1.4v-.247l.082-.579,9.9,1.4L18.143,0H20.7L13.277,37.044,44.451,41.5,42.554.083h.824l1.9,41.5v.33c.083,3.217.083,9.076.165,15.264l30.349-1.238-.66-40.344h.824l.66,40.344L93.932,55.2l-.5-2.062,22.019-8.746-14.35-28.794a4.7,4.7,0,0,0,2.309-.907l14.35,28.794,9.566-3.8V.33h.825V39.355l22.514-8.911.247.66v1.073l-22.927,9.076c-.412,15.511,9.319,20.956,13.69,22.605l1.732-10.229,7.421.577v1.65l-6.019-.495-1.485,8.993c2.639.825,5.2,1.4,7.5,1.9v.825q-3.587-.743-7.67-1.98l-1.484,8.993,9.154,2.392v2.558l-18.8-4.868-.412,9.736,19.132,6.023v4.29l-14.018-4.455-3.794,13.53.907,9.653L150.67,114.1v2.476l-16.494-1.155,2.228,23.183,14.184-1.4v1.65l-14.019,1.32,3.712,38.364a87.745,87.745,0,0,1,10.144,2.309v2.559c-4.207-1.074-7.917-1.98-9.9-2.393l.413,4.7-4.371,18.316,13.772-1.4v.826l-13.936,1.4-1.814,7.591.66,21.038,14.845-.825.082.825-14.844.825.742,25.164,14.02-.908.082,1.65-14.1.908.412,12.541h-4.123l-.33-12.21-32.162,2.063,2.062,10.23Z" transform="translate(60.872 11.138)" fill="#fff"/>
        <path id="Path-59" data-name="Path" d="M35.874,0,0,2.475V14.026l59.212-3.218Z" transform="translate(79.51 259.888)" fill="#ebebeb"/>
        <path id="Path-60" data-name="Path" d="M38.018,2.227,2.144,0,0,6.187,1.155,24.5l38.925-4.62Z" transform="translate(151.175 127.057)" fill="#ebebeb"/>
        <path id="Path-61" data-name="Path" d="M17.483,43.562l115.043.495a17.531,17.531,0,0,0,17.649-17.49L150.257,0H.082L0,20.049V26.4A17.535,17.535,0,0,0,17.483,43.562Z" transform="translate(60.625 284.887)" fill="#ebebeb"/>
        <path id="Path-62" data-name="Path" d="M23.173,33.745,22.6,0H5.113L0,30.362Z" transform="translate(78.768 15.263)" fill="#ebebeb"/>
        <path id="Path-63" data-name="Path" d="M26.307,30.774l1.815-7.343L15.834,0,0,7.755,5.278,29.949Z" transform="translate(160.494 60.311)" fill="#ebebeb"/>
        <path id="Path-64" data-name="Path" d="M0,10.89c.165,1.073,0,29.619,0,29.619l23.009-1.485L20.37,0Z" transform="translate(79.51 182.912)" fill="#ebebeb"/>
        <path id="Path-65" data-name="Path" d="M1.155,22.771,0,5.115,39.5,0V3.053L34.719,19.306Z" transform="translate(155.216 194.215)" fill="#ebebeb"/>
        <path id="Path-66" data-name="Path" d="M4.783,9.57A4.785,4.785,0,1,0,0,4.785,4.784,4.784,0,0,0,4.783,9.57Z" transform="translate(117.528 65.591)" fill="#d12028"/>
        <g id="Group" transform="translate(117 65)" opacity="0.6">
            <path id="Path-67" data-name="Path" d="M4.783,9.57A4.785,4.785,0,1,0,0,4.785,4.784,4.784,0,0,0,4.783,9.57Z" transform="translate(0.528 0.591)" fill="#fff" opacity="0.6"/>
        </g>
        <path id="Path-68" data-name="Path" d="M3.216,6.436A3.218,3.218,0,1,0,0,3.218,3.217,3.217,0,0,0,3.216,6.436Z" transform="translate(119.095 66.993)" fill="#d12028"/>
        <path id="Path-69" data-name="Path" d="M2.061,4.125A2.063,2.063,0,1,0,0,2.063,2.062,2.062,0,0,0,2.061,4.125Z" transform="translate(192.657 260.631)" fill="#d12028"/>
        <path id="Path-70" data-name="Path" d="M95.828,192.235l-.494-11.551-34.72,1.65a4.939,4.939,0,0,1-2.639-.578L8.659,156.84a3.609,3.609,0,0,1-1.979-2.97L0,23.761a2.011,2.011,0,0,1,.66-1.65,2.049,2.049,0,0,1,1.649-.578L23.421,23.1V0H25.9V23.431A2.251,2.251,0,0,1,25.235,25a2.374,2.374,0,0,1-1.649.578L2.474,24.008l6.68,129.78a1.014,1.014,0,0,0,.577.907l49.316,24.916a2.708,2.708,0,0,0,1.4.33L95.5,178.209a2.177,2.177,0,0,1,1.567.577,2.563,2.563,0,0,1,.743,1.485l.494,11.8Z" transform="translate(97.653 69.799)" fill="#d12028"/>
        <path id="Path-71" data-name="Path" d="M6.268,12.541A6.271,6.271,0,1,0,0,6.27,6.27,6.27,0,0,0,6.268,12.541Z" transform="translate(95.426 143.805)" fill="#d12028"/>
        <path id="Path-72" data-name="Path" d="M4.371,8.745A4.373,4.373,0,1,0,0,4.372,4.372,4.372,0,0,0,4.371,8.745Z" transform="translate(97.323 145.703)" fill="#fafafa"/>
        <path id="Shape-8" data-name="Shape" d="M0,4.62a4.618,4.618,0,1,1,9.236,0A4.666,4.666,0,0,1,4.618,9.24,4.612,4.612,0,0,1,0,4.62Z" transform="translate(97.076 145.538)" fill="#d12028"/>
        <path id="Path-73" data-name="Path" d="M32.327,0H2.639A2.658,2.658,0,0,0,0,2.641V13.366a2.657,2.657,0,0,0,2.639,2.64h.33v2.558l2.969-2.558H32.327a2.605,2.605,0,0,0,2.639-2.64V2.641A2.606,2.606,0,0,0,32.327,0Z" transform="translate(106.065 123.921)" fill="#d12028"/>
        <g id="Group-2" data-name="Group" transform="translate(106 123)" opacity="0.4">
            <path id="Path-74" data-name="Path" d="M32.327,0H2.639A2.658,2.658,0,0,0,0,2.641V13.366a2.657,2.657,0,0,0,2.639,2.64h.33v2.558l2.969-2.558H32.327a2.605,2.605,0,0,0,2.639-2.64V2.641A2.606,2.606,0,0,0,32.327,0Z" transform="translate(0.065 0.921)" fill="#fff" opacity="0.4"/>
        </g>
        <path id="Shape-9" data-name="Shape" d="M0,1.732A1.712,1.712,0,0,1,1.815,0,1.76,1.76,0,0,1,3.629,1.732,1.713,1.713,0,0,1,1.815,3.465,1.713,1.713,0,0,1,0,1.732Z" transform="translate(112.827 130.027)" fill="#fff"/>
        <path id="Shape-10" data-name="Shape" d="M.412,3.135v.413H0V0H.5V1.4A1.178,1.178,0,0,1,1.4.99,1.168,1.168,0,0,1,2.639,2.228,1.3,1.3,0,0,1,1.32,3.548,1.18,1.18,0,0,1,.412,3.135Z" transform="translate(117.033 129.944)" fill="#fff"/>
        <path id="Shape-11" data-name="Shape" d="M0,4.455l.165-.33a.61.61,0,0,0,.412.084A.39.39,0,0,0,.989,3.8V1.155h.495V3.8a.74.74,0,0,1-.825.824A1.274,1.274,0,0,1,0,4.455ZM.824.33A.354.354,0,0,1,1.154,0a.354.354,0,0,1,.33.33.354.354,0,0,1-.33.329A.354.354,0,0,1,.824.33Z" transform="translate(119.425 129.779)" fill="#fff"/>
        <path id="Shape-12" data-name="Shape" d="M0,1.32A1.287,1.287,0,0,1,1.237,0,1.193,1.193,0,0,1,2.474,1.32c.082.082.082.082.082.165H.5a.9.9,0,0,0,.907.742A.8.8,0,0,0,2.144,1.9l.248.329a1.365,1.365,0,0,1-.99.413A1.324,1.324,0,0,1,0,1.32Z" transform="translate(121.404 130.852)" fill="#fff"/>
        <path id="Path-75" data-name="Path" d="M0,1.32A1.3,1.3,0,0,1,1.319,0,1.118,1.118,0,0,1,2.391.577l-.33.248A.747.747,0,0,0,1.4.5.865.865,0,0,0,.5,1.4.865.865,0,0,0,1.4,2.31a.749.749,0,0,0,.659-.33l.33.247a1.183,1.183,0,0,1-1.072.578A1.577,1.577,0,0,1,0,1.32Z" transform="translate(124.373 130.852)" fill="#fff"/>
        <path id="Path-76" data-name="Path" d="M1.814,2.97a1.2,1.2,0,0,1-.577.165A.74.74,0,0,1,.412,2.31V.907H0V.5H.412V0h.5V.577h.742V.99H.907v1.4a.39.39,0,0,0,.412.413c.165,0,.248-.083.33-.083Z" transform="translate(127.012 130.357)" fill="#fff"/>
        <path id="Shape-13" data-name="Shape" d="M.083,3.713V1.155h.5V3.713ZM0,.33A.354.354,0,0,1,.33,0,.354.354,0,0,1,.66.33.354.354,0,0,1,.33.66.354.354,0,0,1,0,.33Z" transform="translate(129.238 129.779)" fill="#fff"/>
        <path id="Path-77" data-name="Path" d="M2.639,0,1.566,2.558H1.072L0,0H.494L1.4,2.063,2.309,0Z" transform="translate(130.311 130.934)" fill="#fff"/>
        <path id="Shape-14" data-name="Shape" d="M0,1.32A1.287,1.287,0,0,1,1.237,0,1.193,1.193,0,0,1,2.474,1.32c.083.082.083.082.083.165H.5a.9.9,0,0,0,.907.742A.8.8,0,0,0,2.144,1.9l.248.329a1.365,1.365,0,0,1-.99.413A1.324,1.324,0,0,1,0,1.32Z" transform="translate(133.032 130.852)" fill="#fff"/>
        <path id="Shape-15" data-name="Shape" d="M5.195,15.13,1.649,10.345A9.264,9.264,0,0,1,.825,9.273,6.574,6.574,0,0,1,.082,5.065,6.155,6.155,0,1,1,11.463,9.273c-.248.329-.907,1.156-.907,1.156L7.01,15.13a1.237,1.237,0,0,1-.938.434A1.061,1.061,0,0,1,5.195,15.13Z" transform="translate(116.291 48.068)" fill="#d12028"/>
        <path id="Path-78" data-name="Path" d="M.907,0s10.474,1.733,11.3,1.981,4.123,1.815,4.37,2.8a30.6,30.6,0,0,1,0,3.96s-.577.495-.989-.495a8.849,8.849,0,0,1-.33-2.888l-1.9-.742.99,1.815.165,4.208s-1.32-.083-1.567-1.156A10.3,10.3,0,0,1,12.7,7.343L11.381,6.188l.99,1.4.329,3.053s-.989.33-1.319-.33a9.793,9.793,0,0,1-.33-2.723L7.258,6.271,4.7,7.673,0,5.033Z" transform="translate(209.315 184.479)" fill="#ffbe9d"/>
        <path id="Path-79" data-name="Path" d="M5.278,0C5.36.248,17.9,17.574,17.9,17.574l25.235,7.837L41.976,34.9l-31.008-6.27L0,16.006Z" transform="translate(168.246 158.573)" fill="#d12028"/>
        <g id="Group-3" data-name="Group" transform="translate(168 158)" opacity="0.2">
            <path id="Path-80" data-name="Path" d="M5.278,0C5.36.248,17.9,17.574,17.9,17.574l25.235,7.837L41.976,34.9l-31.008-6.27L0,16.006Z" transform="translate(0.246 0.573)" opacity="0.2"/>
        </g>
        <path id="Path-81" data-name="Path" d="M53.6,10.065H1.98A2.007,2.007,0,0,1,0,8.085V1.98A2.007,2.007,0,0,1,1.98,0H53.6a2.007,2.007,0,0,1,1.979,1.98V8.085A1.906,1.906,0,0,1,53.6,10.065Z" transform="translate(75.881 182.417)" fill="#f5f5f5"/>
        <path id="Path-82" data-name="Path" d="M53.852,10.313a1.313,1.313,0,0,0,.33-.082,2.541,2.541,0,0,0,.824-.413,2.083,2.083,0,0,0,.743-1.32V2.063a1.892,1.892,0,0,0-.66-1.4,3.34,3.34,0,0,0-.742-.412A3.077,3.077,0,0,0,53.44.165H47.419c-11.545,0-27.544,0-45.192.083A1.946,1.946,0,0,0,.907.825a2.243,2.243,0,0,0-.5,1.4v5.61A2.274,2.274,0,0,0,.5,8.581,1.5,1.5,0,0,0,1.4,9.653c.247.083.412.165.66.248H35.214c5.773,0,10.473,0,13.69.082h4.7c.165.33.248.33.248.33H48.821c-3.216,0-7.917,0-13.689.083H1.9a1.59,1.59,0,0,1-.825-.248,1.817,1.817,0,0,1-.99-1.32A2.82,2.82,0,0,1,0,8V2.393A2.523,2.523,0,0,1,.577.743,2.344,2.344,0,0,1,2.144,0C19.792,0,35.791,0,47.337.083h6.02a3.106,3.106,0,0,1,.907.082,2.6,2.6,0,0,1,.825.413,2.03,2.03,0,0,1,.742,1.567V8.581a1.7,1.7,0,0,1-.825,1.32,2.824,2.824,0,0,1-.907.412C54.017,10.4,53.852,10.313,53.852,10.313Z" transform="translate(75.634 182.169)" fill="#263238"/>
        <path id="Path-83" data-name="Path" d="M26.555,53.133A26.567,26.567,0,1,0,0,26.567,26.56,26.56,0,0,0,26.555,53.133Z" transform="translate(241.891 268.056)" fill="#263238"/>
        <path id="Path-84" data-name="Path" d="M0,0H0A26.566,26.566,0,0,0,26.147,27.061,26.6,26.6,0,0,0,53.114.907V.825Z" transform="translate(241.886 294.128)" fill="#263238"/>
        <path id="Path-85" data-name="Path" d="M18.638,37.292A18.646,18.646,0,1,0,0,18.646,18.642,18.642,0,0,0,18.638,37.292Z" transform="translate(249.807 275.977)" fill="#fafafa"/>
        <path id="Path-86" data-name="Path" d="M18.886,0A18.572,18.572,0,0,0,0,18.4l37.276.578A18.643,18.643,0,0,0,18.886,0Z" transform="translate(249.807 275.975)" fill="#e0e0e0"/>
        <path id="Path-87" data-name="Path" d="M11.38,22.771A11.386,11.386,0,1,0,0,11.386,11.383,11.383,0,0,0,11.38,22.771Z" transform="translate(257.065 283.237)" fill="#263238"/>
        <path id="Path-88" data-name="Path" d="M18.472,1.056S45.687-7.195,56.9,22.424L0,40.08Z" transform="translate(237.355 254.625)" fill="#d12028"/>
        <path id="Path-89" data-name="Path" d="M26.555,53.133A26.567,26.567,0,1,0,0,26.567,26.56,26.56,0,0,0,26.555,53.133Z" transform="translate(78.026 268.056)" fill="#263238"/>
        <path id="Path-90" data-name="Path" d="M.037,0c0,.082-.083.082,0,0A26.565,26.565,0,0,0,26.179,27.061,26.6,26.6,0,0,0,53.146.907V.825Z" transform="translate(77.989 294.128)" fill="#263238"/>
        <path id="Path-91" data-name="Path" d="M18.637,37.292A18.646,18.646,0,1,0,0,18.646,18.642,18.642,0,0,0,18.637,37.292Z" transform="translate(85.943 275.977)" fill="#fafafa"/>
        <path id="Path-92" data-name="Path" d="M18.885,0A18.571,18.571,0,0,0,0,18.4l37.275.578A18.7,18.7,0,0,0,18.885,0Z" transform="translate(85.943 275.975)" fill="#e0e0e0"/>
        <path id="Path-93" data-name="Path" d="M11.38,22.771A11.386,11.386,0,1,0,0,11.386,11.383,11.383,0,0,0,11.38,22.771Z" transform="translate(93.2 283.237)" fill="#263238"/>
        <path id="Path-94" data-name="Path" d="M45.452,2.145C45.287,2.227,31.432,0,31.432,0a8.246,8.246,0,0,1-6.35,3.3c-5.938.247-11.793.577-16.906.742A8.56,8.56,0,0,0,.012,12.953,8.676,8.676,0,0,0,8.259,21.2L37.7,22.358c4.866.165,11.3-2.723,14.267-6.518Z" transform="translate(96.899 281.835)" fill="#455a64"/>
        <path id="Path-95" data-name="Path" d="M.011,70.377S-1.226,44.47,23.1,39.107v-3.3h85.19v7.921s-12.535,15.1-8.412,27.556c4.124,12.541,5.361,13.778,5.361,13.778h48.491a33.318,33.318,0,0,0,6.1-18.4c.247-10.973-4.288-29.784-7.752-41.747-3.134-10.891-5.031-20.049-5.031-20.049L161.567,0s26.967,35.23,28.039,37.21,4.866,6.6,3.959,16.748S168.494,95.293,162.144,98.84s-12.123,3.713-17.813,4.621c-4.948.742-41.647.247-51.3.082a19.307,19.307,0,0,1-9.483-2.64c-2.887-1.732-5.031-4.62-7.423-9.323l-5.03-9.9Z" transform="translate(70.015 201.805)" fill="#d12028"/>
        <path id="Path-96" data-name="Path" d="M11.156,0,.435,16.831a2.642,2.642,0,0,0,3.216,3.878A11.377,11.377,0,0,0,7.28,18.234c4.948-4.7,13.69-17,13.69-17Z" transform="translate(65.385 270.366)" fill="#455a64"/>
        <path id="Path-97" data-name="Path" d="M73.48,29.371a.641.641,0,0,1,.082-.247,3.78,3.78,0,0,0,.247-.743,22.987,22.987,0,0,0,.578-2.805,19.84,19.84,0,0,0-1.65-10.148,23.282,23.282,0,0,0-3.958-5.94,24.708,24.708,0,0,0-6.515-4.951A31.665,31.665,0,0,0,53.77,1.4a46.338,46.338,0,0,0-9.732-.99,76.159,76.159,0,0,0-9.813.743c-3.134.412-6.185.907-8.989,1.567A49.78,49.78,0,0,0,10.8,8.085a34.553,34.553,0,0,0-8.247,6.27C1.732,15.263,1.072,16,.66,16.5a3.572,3.572,0,0,1-.5.578c-.082.165-.165.165-.165.165a25.444,25.444,0,0,1,2.392-2.97,34.4,34.4,0,0,1,8.247-6.436A52.878,52.878,0,0,1,25.153,2.392c2.887-.66,5.855-1.155,8.989-1.65A75.246,75.246,0,0,1,43.956,0,47.71,47.71,0,0,1,53.77.99a34.212,34.212,0,0,1,8.576,3.217,27.331,27.331,0,0,1,6.6,5.033A21.669,21.669,0,0,1,72.9,15.263a19.161,19.161,0,0,1,1.567,10.23,12.791,12.791,0,0,1-.66,2.806,2.752,2.752,0,0,1-.247.66A2.33,2.33,0,0,0,73.48,29.371Z" transform="translate(80.087 244.048)" fill="#263238"/>
        <path id="Path-98" data-name="Path" d="M18.968,18.151A8.318,8.318,0,0,0,19.3,17a9.9,9.9,0,0,0,.083-3.217,14.873,14.873,0,0,0-1.567-4.538,19.773,19.773,0,0,0-1.567-2.393A17.832,17.832,0,0,0,14.1,4.621,18.706,18.706,0,0,0,9.071,1.65,20.437,20.437,0,0,0,4.453.413,18.228,18.228,0,0,0,1.237.083,12.322,12.322,0,0,0,0,0H1.237a31,31,0,0,1,3.3.248,19.928,19.928,0,0,1,4.7,1.237,19.555,19.555,0,0,1,5.2,2.971,13.6,13.6,0,0,1,2.144,2.227,13.221,13.221,0,0,1,1.567,2.393A12.778,12.778,0,0,1,19.71,13.7a7.842,7.842,0,0,1-.248,3.3,2.741,2.741,0,0,1-.33.825A.9.9,0,0,1,18.968,18.151Z" transform="translate(129.651 249.41)" fill="#f5f5f5"/>
        <g id="Group-4" data-name="Group" transform="translate(131 244)" opacity="0.4">
            <path id="Path-99" data-name="Path" d="M0,0A35.247,35.247,0,0,1,12.865,5.2,22.613,22.613,0,0,1,21.442,15.84a18.421,18.421,0,0,1-.33,13.779l6.02.5c2.062-6.766-.165-15.1-5.031-20.379A30.654,30.654,0,0,0,0,0Z" transform="translate(0.96 0.873)" opacity="0.4"/>
        </g>
        <path id="Path-100" data-name="Path" d="M56.821,45.625H7.092A7.093,7.093,0,0,1,0,38.529V7.095A7.094,7.094,0,0,1,7.092,0H56.738a7.094,7.094,0,0,1,7.093,7.095V38.529A7.024,7.024,0,0,1,56.821,45.625Z" transform="translate(71.758 191.905)" fill="#455a64"/>
        <path id="Path-101" data-name="Path" d="M64.161.5c0,.083-14.35.165-32.081.165S0,.583,0,.5,14.35.335,32.08.335,64.161.418,64.161.5Z" transform="translate(71.428 201.635)" fill="#263238"/>
        <path id="Path-102" data-name="Path" d="M85.6.5c0,.083-19.133.165-42.8.165S0,.583,0,.5,19.133.335,42.8.335,85.6.418,85.6.5Z" transform="translate(92.705 240.082)" fill="#263238"/>
        <path id="Path-103" data-name="Path" d="M39.668,8.581a7.422,7.422,0,0,0,1.567-3.8C41.4,2.64,40.41,0,38.1,0H8.659A8.66,8.66,0,0,0,0,8.663H39.668Z" transform="translate(138.722 228.949)" fill="#455a64"/>
        <path id="Path-104" data-name="Path" d="M5.71,28.876.6,18.233A6.571,6.571,0,0,1,3.153,9.9L18.492.742A5.115,5.115,0,0,1,21.131,0h3.3l1.32,21.616L20.637,23.6l3.216,5.28Z" transform="translate(211.44 177.797)" fill="#d12028"/>
        <path id="Path-105" data-name="Path" d="M0,0S5.2,1.238,5.855,9.241c.66,8.085-4.618,10.56-4.618,10.56Z" transform="translate(235.953 178.539)" fill="#ebebeb"/>
        <path id="Path-106" data-name="Path" d="M13.117.863S2.561,5.9,1.242,6.721a2.47,2.47,0,0,0-.99,3.3c1.237,2.97,6.185.165,6.185.165l9.814-4.95s3.793-1.815,2.391-4.043C17.076-1.282,13.117.863,13.117.863Z" transform="translate(205.847 190.959)" fill="#263238"/>
        <path id="Path-107" data-name="Path" d="M.66,0s9.979,1.733,10.8,1.9c.825.247,4.124,1.815,4.371,2.805a30.6,30.6,0,0,1,0,3.96s-.577.495-.99-.495a8.862,8.862,0,0,1-.329-2.887l-1.9-.743.989,1.815.165,4.208s-1.319-.083-1.567-1.155a10.341,10.341,0,0,1-.247-2.145L10.639,6.106l.989,1.4.33,3.053s-.99.33-1.319-.33a9.79,9.79,0,0,1-.33-2.723L6.515,6.188l-2.556,1.4L0,5.446Z" transform="translate(203.295 190.007)" fill="#ffbe9d"/>
        <path id="Path-108" data-name="Path" d="M4.123,14.521c2.278,0,4.124-3.251,4.124-7.26S6.4,0,4.123,0,0,3.251,0,7.261,1.846,14.521,4.123,14.521Z" transform="translate(211.212 168.886)" fill="#263238"/>
        <path id="Path-109" data-name="Path" d="M0,1.5,2.309,9.335a2.04,2.04,0,0,0,1.072-2.31C2.8,4.3,2.474,2.4,1.9.012,1.732-.153,0,1.5,0,1.5Z" transform="translate(215.995 179.6)" fill="#263238"/>
        <g id="Group-5" data-name="Group" transform="translate(168 203)" opacity="0.4">
            <path id="Path-110" data-name="Path" d="M2.987,73.264a18.678,18.678,0,0,1-.66-1.98c-.165-.66-.412-1.32-.577-1.9a20.143,20.143,0,0,1-.577-2.97c-3.794,15.593,1.979,26.566,12.04,27.391,14.679,1.155,32.575,1.98,39.832.083C66.24,90.425,71.106,79.452,72.26,77.636s11.628-21.038,5.2-39.519S59.808,0,59.808,0L49.087,3.548s1.979,9.158,5.03,20.048c3.382,11.963,8,30.774,7.752,41.747a33.327,33.327,0,0,1-6.1,18.4H7.275C7.193,83.659,6.2,82.587,2.987,73.264Z" transform="translate(0.063 0.208)" opacity="0.4"/>
        </g>
        <path id="Path-111" data-name="Path" d="M.022,3.713.352,0,88.923,10.231a8.714,8.714,0,0,1,7.587,10.23L96.1,22.689,4.476,9.323A5.188,5.188,0,0,1,.022,3.713Z" transform="translate(68.107 264.426)" fill="#d12028"/>
        <g id="Group-6" data-name="Group" transform="translate(68 264)" opacity="0.6">
            <path id="Path-112" data-name="Path" d="M.022,3.713.352,0,88.923,10.231a8.714,8.714,0,0,1,7.587,10.23L96.1,22.689,4.476,9.323A5.188,5.188,0,0,1,.022,3.713Z" transform="translate(0.107 0.426)" opacity="0.6"/>
        </g>
        <g id="Group-7" data-name="Group" transform="translate(240 254)" opacity="0.3">
            <path id="Path-113" data-name="Path" d="M0,38.282S19.463,16.831,23.5,0a38.226,38.226,0,0,1,6.021.413C29.606.413,18.061,31.764,0,38.282Z" transform="translate(0.241 0.608)" opacity="0.3"/>
        </g>
        <path id="Path-114" data-name="Path" d="M24.246,0a1.419,1.419,0,0,1,.083.577c.082.33.164.908.247,1.568A20.645,20.645,0,0,1,24.411,8a28.374,28.374,0,0,1-2.557,8.25,82.517,82.517,0,0,1-5.195,9.241A119.18,119.18,0,0,1,5.278,40.922c-1.567,1.9-2.886,3.382-3.793,4.373-.413.5-.825.907-1.072,1.155L0,46.862a1.843,1.843,0,0,1,.33-.412q.372-.5.99-1.238c.907-1.073,2.144-2.64,3.711-4.455a132.525,132.525,0,0,0,11.3-15.428c1.979-3.218,3.794-6.271,5.2-9.158A30.209,30.209,0,0,0,24.164,8a24.353,24.353,0,0,0,.247-5.776c-.082-.66-.165-1.237-.165-1.567Z" transform="translate(239.251 247.018)" fill="#263238"/>
        <path id="Path-115" data-name="Path" d="M2.892,3.064A26.986,26.986,0,0,0,6.012,5.89,26.974,26.974,0,0,0,3.123,2.828,26.943,26.943,0,0,0,0,0,26.836,26.836,0,0,0,2.892,3.064Z" transform="translate(223.755 286.873)" fill="#263238"/>
        <path id="Path-116" data-name="Path" d="M.008,5.2a12.247,12.247,0,0,1,1.4-2.805A12.355,12.355,0,0,1,3.472,0c.082.083-.825,1.155-1.732,2.558A26.658,26.658,0,0,1,.008,5.2Z" transform="translate(171.949 286.867)" fill="#263238"/>
        <path id="Path-117" data-name="Path" d="M9.236,19.8a12.811,12.811,0,0,0,2.639-3.383,11.341,11.341,0,0,0,1.32-4.455,11.036,11.036,0,0,0-.907-5.528A10.9,10.9,0,0,0,8.577,2.227,11.738,11.738,0,0,0,4.288.412,17.326,17.326,0,0,0,0,.33,1.3,1.3,0,0,0,.33.247,7.146,7.146,0,0,1,1.155.082,10.809,10.809,0,0,1,4.371.165,11.768,11.768,0,0,1,8.742,1.9,11.193,11.193,0,0,1,12.618,6.27a11,11,0,0,1,.989,5.693A11.317,11.317,0,0,1,12.2,16.5a10.151,10.151,0,0,1-1.979,2.558c-.247.248-.495.413-.66.578C9.319,19.8,9.236,19.8,9.236,19.8Z" transform="translate(125.28 284.64)" fill="#263238"/>
        <path id="Path-118" data-name="Path" d="M.336,3.139A15.009,15.009,0,0,0,.65,6.263,15.013,15.013,0,0,0,.664,3.124,15,15,0,0,0,.35,0,15.013,15.013,0,0,0,.336,3.139Z" transform="translate(101.526 291.412)" fill="#263238"/>
        <path id="Path-119" data-name="Path" d="M.336,3.13A15.017,15.017,0,0,0,.9,6.219a15.032,15.032,0,0,0-.234-3.13A15.059,15.059,0,0,0,.1,0,14.987,14.987,0,0,0,.336,3.13Z" transform="translate(103.639 291.391)" fill="#263238"/>
        <path id="Path-120" data-name="Path" d="M48.161.5c0,.082-10.8.165-24.08.165S0,.582,0,.5,10.8.335,24.081.335C37.441.335,48.161.417,48.161.5Z" transform="translate(92.87 237.03)" fill="#263238"/>
        <path id="Path-121" data-name="Path" d="M.5,55.113c-.082,0-.165-12.376-.165-27.557S.418,0,.5,0,.665,12.293.665,27.556.665,55.113.5,55.113Z" transform="translate(105.647 182.417)" fill="#263238"/>
        <path id="Path-122" data-name="Path" d="M.011,55.113c-.083,0,.33-12.293.989-27.557C1.66,12.376,2.237,0,2.4,0c.083,0-.329,12.293-.989,27.556C.753,42.737.176,55.113.011,55.113Z" transform="translate(99.539 182.417)" fill="#263238"/>
        <path id="Path-123" data-name="Path" d="M6.927,36.324l-.247-.247c-.165-.165-.412-.5-.742-.908a23.362,23.362,0,0,1-2.392-3.548A27.536,27.536,0,0,1,0,18.091,27.155,27.155,0,0,1,3.629,4.642,29.406,29.406,0,0,1,6.02,1.177C6.35.765,6.6.517,6.763.27,6.927.1,7.01-.06,7.01.022a2.411,2.411,0,0,0-.247.33C6.6.6,6.35.847,6.02,1.26A29.807,29.807,0,0,0,3.711,4.807,27.743,27.743,0,0,0,.165,18.173,28.329,28.329,0,0,0,3.629,31.539a22.092,22.092,0,0,0,2.309,3.548c.33.412.577.66.742.907C6.845,36.159,6.927,36.242,6.927,36.324Z" transform="translate(77.778 276.367)" fill="#455a64"/>
        <path id="Path-124" data-name="Path" d="M9.484,0,9.319.413,5.443,7.755,0,13.036l10.968,14.6,9.154-1.485s-.989-2.063-5.608-2.475l-1.731-8.746L19.215,4.95" transform="translate(168.246 263.106)" fill="#455a64"/>
        <path id="Path-125" data-name="Path" d="M0,1.073l10.968,14.6,9.071-1.485L18.8,12.953l-7.5.825L1.154,0Z" transform="translate(168.164 275.069)" fill="#e0e0e0"/>
        <path id="Path-126" data-name="Path" d="M2.567.5c-.083.083-.66-.082-1.32,0C.505.583.093.995.01.913S.34.253,1.165.088C1.989,0,2.649.418,2.567.5Z" transform="translate(179.369 282.242)" fill="#263238"/>
        <path id="Path-127" data-name="Path" d="M2.639.908C2.556.99,2.062.495,1.319.495S.082.908,0,.825A1.2,1.2,0,0,1,.247.413,2.065,2.065,0,0,1,1.319.083,1.839,1.839,0,0,1,2.392.495,1.22,1.22,0,0,1,2.639.908Z" transform="translate(178.802 279.689)" fill="#263238"/>
        <path id="Path-128" data-name="Path" d="M2.392.966c-.083.082-.5-.413-1.155-.495A9.884,9.884,0,0,0,0,.553C0,.471.083.388.33.223A1.5,1.5,0,0,1,1.4.058a1.876,1.876,0,0,1,.907.495A1.441,1.441,0,0,1,2.392.966Z" transform="translate(178.637 276.826)" fill="#263238"/>
        <path id="Path-129" data-name="Path" d="M2.315,1.193C2.233,1.276,1.9.781,1.243.533A6.644,6.644,0,0,0,.006.2c-.082-.082.66-.412,1.4,0C2.15.451,2.4,1.111,2.315,1.193Z" transform="translate(180.775 274.041)" fill="#263238"/>
        <path id="Path-130" data-name="Path" d="M2.618,3.466a3.586,3.586,0,0,1-.989-.825L.639,1.65A2.353,2.353,0,0,1,.062.99a.693.693,0,0,1,0-.577A.608.608,0,0,1,.557,0a1.5,1.5,0,0,1,.907.33,2.225,2.225,0,0,1,.66.578,3.021,3.021,0,0,1,.659,1.237,1.9,1.9,0,0,1,0,1.321c-.082,0,0-.5-.247-1.155a3.767,3.767,0,0,0-.66-1.073A3.6,3.6,0,0,0,1.3.743,3.358,3.358,0,0,0,.639.5.29.29,0,0,0,.474.578V.825a3.1,3.1,0,0,0,.5.578c.33.33.577.66.907.99A5.849,5.849,0,0,1,2.618,3.466Z" transform="translate(181.379 269.706)" fill="#263238"/>
        <path id="Path-131" data-name="Path" d="M.043,2.1c-.082,0-.082-.5.33-1.073A2.305,2.305,0,0,1,3.012.119a.428.428,0,0,1,.165.33c0,.165,0,.248-.082.331a1.146,1.146,0,0,1-.248.33c-.165.165-.412.33-.577.5a4.436,4.436,0,0,1-1.155.5c-.659.165-1.154.082-1.072,0-.082-.083.33-.083.99-.33a6.12,6.12,0,0,0,.99-.578c.165-.165.329-.247.494-.412C2.6.7,2.682.614,2.682.532V.449A.835.835,0,0,0,2.435.367H2.1a1.936,1.936,0,0,0-.66.165,2.6,2.6,0,0,0-.907.66C.208,1.687.126,2.1.043,2.1Z" transform="translate(184.284 271.237)" fill="#263238"/>
        <path id="Path-132" data-name="Path" d="M1.072,2.145A1.073,1.073,0,1,0,0,1.073,1.072,1.072,0,0,0,1.072,2.145Z" transform="translate(173.277 273.749)" fill="#e0e0e0"/>
        <path id="Path-133" data-name="Path" d="M0,1.733,2.969,20.791l23.668-3.547c-.494-2.228-13.442-4.951-13.442-4.951L11.793,0Z" transform="translate(211.047 268.386)" fill="#455a64"/>
        <path id="Path-134" data-name="Path" d="M.546.017A1.02,1.02,0,0,0,.052,1.254a.955.955,0,0,0,1.154.5A.973.973,0,0,0,1.7.512,1.065,1.065,0,0,0,.382.1" transform="translate(216.191 280.745)" fill="#e0e0e0"/>
        <path id="Path-135" data-name="Path" d="M.248,4.537,0,2.64,22.761,0s1.155.33,1.155,1.072Z" transform="translate(213.686 284.64)" fill="#e0e0e0"/>
        <path id="Path-136" data-name="Path" d="M1.924.055A8.663,8.663,0,0,0,.852.8c-.5.412-.742.99-.825.99A1.446,1.446,0,0,1,.6.55C1.264-.11,1.924-.027,1.924.055Z" transform="translate(222.648 280.459)" fill="#263238"/>
        <path id="Path-137" data-name="Path" d="M1.34.02C1.422.1.928.433.6.928.268,1.506.268,2,.1,2A1.311,1.311,0,0,1,.268.681C.68.1,1.34-.062,1.34.02Z" transform="translate(225.871 281.154)" fill="#263238"/>
        <path id="Path-138" data-name="Path" d="M.315,2.075A1.213,1.213,0,0,1,.15.92C.315.26.892-.07.892.012.974.1.645.507.48,1.085A5.962,5.962,0,0,1,.315,2.075Z" transform="translate(228.793 281.905)" fill="#263238"/>
        <path id="Path-139" data-name="Path" d="M2.484.4c0,.082-.578,0-1.237.165S.092.973.01.891.339.313,1.164.148C1.906-.017,2.484.231,2.484.4Z" transform="translate(221.511 277.396)" fill="#263238"/>
        <path id="Path-140" data-name="Path" d="M3.826,1.4c0,.083-.412.165-1.155.165A8.165,8.165,0,0,1,1.352,1.4L.61,1.155C.527,1.072.362,1.072.2.907A.51.51,0,0,1,.032.33.679.679,0,0,1,.527,0h.5a2.385,2.385,0,0,1,.742.165A4.321,4.321,0,0,1,3,.742c.66.413.908.825.825.825-.082.083-.33-.247-.99-.577A3.763,3.763,0,0,0,1.682.577,2.3,2.3,0,0,0,.94.5c-.248,0-.5,0-.5.082s0,.083.082.165.165.083.33.165a5.642,5.642,0,0,1,.66.248A3.307,3.307,0,0,0,2.754,1.4C3.331,1.32,3.826,1.32,3.826,1.4Z" transform="translate(219.179 273.667)" fill="#263238"/>
        <path id="Path-141" data-name="Path" d="M.557,3.9a2.288,2.288,0,0,1-.5-1.072,3.542,3.542,0,0,1,0-1.32A2.426,2.426,0,0,1,.227.765,1.136,1.136,0,0,1,.887.022.5.5,0,0,1,1.464.27c.083.165.165.247.165.413a2.787,2.787,0,0,1,.083.825,3.108,3.108,0,0,1-.33,1.32c-.413.66-.825.907-.825.825-.082-.083.33-.33.577-.99a2.637,2.637,0,0,0,.248-1.155c0-.248-.083-.5-.083-.661C1.217.6,1.133.435.969.435A.58.58,0,0,0,.64.847a2.541,2.541,0,0,0-.165.661A6.622,6.622,0,0,0,.391,2.745C.475,3.4.64,3.9.557,3.9Z" transform="translate(222.283 271.334)" fill="#263238"/>
        <path id="Path-142" data-name="Path" d="M20.369.99,0,45.212,13.442,53.3,41.564,0" transform="translate(172.04 224.494)" fill="#263238"/>
        <path id="Path-143" data-name="Path" d="M79.962,69.885l-14.6,2.31-8.742-52.06L13.493,23.27a9.278,9.278,0,0,1-3.381-.33C-2.011,19.64-.362,4.211.793,1.736L60.417,0A12.768,12.768,0,0,1,73.365,10.977Z" transform="translate(145.929 208.897)" fill="#263238"/>
        <path id="Path-144" data-name="Path" d="M4.32,62.373l.248-22.028S1.764,25.989.857,20.379C-.463,11.633-2.195,7.508,12.072,1.238L15.206,0l4.866.083C25.845.5,31.947,5.776,32.03,9.158l5.608,49.585Z" transform="translate(141.824 150.735)" fill="#d12028"/>
        <path id="Path-145" data-name="Path" d="M3.328,0S-.713,8.663.111,16.583l15.01,14.439c3.381,3.8,7.587,5.362,13.03,5.692L59.324,40.1l.824-8.168L30.542,23.514c-1.154-.248-1.732-1.485-2.639-2.228Z" transform="translate(143.724 157.088)" fill="#d12028"/>
        <path id="Path-146" data-name="Path" d="M0,1.155A3.283,3.283,0,0,1,.577.742,6.393,6.393,0,0,1,2.557.165a9.227,9.227,0,0,1,3.381,0A4.6,4.6,0,0,1,6.927.5a6.262,6.262,0,0,1,.908.66c.577.5,1.237.99,1.814,1.567,1.237,1.155,2.391,2.64,3.793,4.126s2.887,3.135,4.536,4.785,3.381,3.465,5.361,5.28l2.968,2.723c.5.412,1.073.907,1.567,1.4a3.093,3.093,0,0,0,1.732.99c8.824,2.475,18.885,5.363,29.606,8.416h.165v.165a13.558,13.558,0,0,0-.165,1.815c-.247,2.145-.494,4.29-.659,6.353v.165h-.165c-4.536-.495-8.907-.99-13.195-1.485-2.144-.248-4.206-.495-6.268-.66s-4.041-.413-5.938-.578c-1.979-.247-3.793-.412-5.69-.742a20.822,20.822,0,0,1-5.2-1.238,17.045,17.045,0,0,1-4.371-2.393c-1.32-.907-2.557-1.9-3.629-2.805a135.344,135.344,0,0,1-9.979-9.488C2.969,18.4,2.144,17.491,1.567,16.831a6.707,6.707,0,0,0-.66-.743L.66,15.84l.247.248.66.66,2.639,2.64c2.309,2.31,5.608,5.693,10.061,9.406,1.155.907,2.309,1.9,3.629,2.805a18.362,18.362,0,0,0,4.371,2.31,26.509,26.509,0,0,0,5.195,1.155c1.814.247,3.711.495,5.608.66,1.979.165,3.958.413,5.938.578,2.061.247,4.123.412,6.267.66,4.206.495,8.659.907,13.195,1.4l-.165.165c.248-1.98.413-4.125.66-6.353a14.907,14.907,0,0,0,.165-1.815l.082.165c-10.721-3.052-20.782-5.94-29.606-8.415a4.75,4.75,0,0,1-1.9-1.073,12.587,12.587,0,0,0-1.566-1.4q-1.609-1.362-2.969-2.723c-1.9-1.815-3.629-3.63-5.278-5.28s-3.134-3.3-4.536-4.785S10.8,3.877,9.566,2.722A15.346,15.346,0,0,0,7.752,1.155C7.422.907,7.175.742,6.845.5a6.225,6.225,0,0,0-.907-.33,11.318,11.318,0,0,0-3.3-.083A6.788,6.788,0,0,0,.66.577C.165.99,0,1.155,0,1.155Z" transform="translate(144.66 158.491)" fill="#263238"/>
        <path id="Path-147" data-name="Path" d="M.04,10.4,1.524,31.847a6.7,6.7,0,0,0,13.36-.908c-.165-2.062-.247-3.712-.247-3.712s5.195-.825,5.278-6.023c0-2.97-.495-9.818-.907-15.016A6.746,6.746,0,0,0,12.245,0H9.112A9.613,9.613,0,0,0,.04,10.4Z" transform="translate(152.372 121.281)" fill="#ffbe9d"/>
        <path id="Path-148" data-name="Path" d="M6.762,1.9A12.309,12.309,0,0,1,0,0S1.566,3.712,6.762,3.3Z" transform="translate(160.247 146.528)" fill="#eb996e"/>
        <path id="Path-149" data-name="Path" d="M1.485.66A.739.739,0,0,1,.743,1.4.674.674,0,0,1,0,.742.739.739,0,0,1,.743,0,.727.727,0,0,1,1.485.66Z" transform="translate(168.658 133.492)" fill="#263238"/>
        <path id="Path-150" data-name="Path" d="M2.991.865c-.083.083-.66-.33-1.485-.33S.1.948.022.865.1.618.352.453A2.13,2.13,0,0,1,1.506.123,1.635,1.635,0,0,1,2.661.535C2.908.618,2.991.783,2.991.865Z" transform="translate(167.482 131.884)" fill="#263238"/>
        <path id="Path-151" data-name="Path" d="M1.485.66A.739.739,0,0,1,.742,1.4.673.673,0,0,1,0,.742.739.739,0,0,1,.742,0,.878.878,0,0,1,1.485.66Z" transform="translate(161.236 133.492)" fill="#263238"/>
        <path id="Path-152" data-name="Path" d="M2.99.866A8.254,8.254,0,0,0,1.506.536,8.277,8.277,0,0,0,.021.866C-.061.783.1.618.351.453A2.137,2.137,0,0,1,1.506.123,1.627,1.627,0,0,1,2.66.536.982.982,0,0,1,2.99.866Z" transform="translate(159.648 131.966)" fill="#263238"/>
        <path id="Path-153" data-name="Path" d="M.338,6.6c0-.082.494-.165,1.319-.247.165,0,.412-.083.412-.165.083-.165,0-.33-.165-.578-.165-.5-.412-.99-.577-1.567A28.785,28.785,0,0,1,.008,0,29.972,29.972,0,0,1,1.657,3.96c.165.578.412,1.073.577,1.568.083.247.248.495.083.825a.648.648,0,0,1-.33.33c-.165,0-.247.082-.33.082C.832,6.683.338,6.683.338,6.6Z" transform="translate(165.187 132.172)" fill="#263238"/>
        <path id="Path-154" data-name="Path" d="M.117,0c.165,0,.165.825.907,1.485.742.577,1.649.5,1.649.66,0,.082-.164.165-.577.165a2.087,2.087,0,0,1-1.4-.495A2.044,2.044,0,0,1,.034.577C-.048.165.034,0,.117,0Z" transform="translate(163.016 139.35)" fill="#263238"/>
        <path id="Path-155" data-name="Path" d="M3.65.61c-.082.248-.907.083-1.814.248C.929.94.1,1.188.021,1.023-.061.94.1.693.434.528A3.132,3.132,0,0,1,1.753.033,2.434,2.434,0,0,1,3.155.2C3.485.28,3.65.445,3.65.61Z" transform="translate(159.153 129.169)" fill="#263238"/>
        <path id="Path-156" data-name="Path" d="M2.67.876c-.165.165-.66,0-1.32,0S.113.959.031.794C-.052.711.031.546.278.381A2.065,2.065,0,0,1,1.35.051a1.834,1.834,0,0,1,1.072.33C2.67.546,2.752.794,2.67.876Z" transform="translate(167.473 129.563)" fill="#263238"/>
        <path id="Path-157" data-name="Path" d="M3.465.152C3.382.152-.081-.921,0,2.627S3.63,5.35,3.63,5.267C3.712,5.1,3.465.152,3.465.152Z" transform="translate(150.679 135.485)" fill="#ffbe9d"/>
        <path id="Path-158" data-name="Path" d="M1.732,2.888a.291.291,0,0,1-.165.082q-.125.124-.5,0A1.459,1.459,0,0,1,.33,1.65,1.629,1.629,0,0,1,.5.743.84.84,0,0,1,.907.248a.243.243,0,0,1,.33.165c.082.082,0,.165.082.165,0,0,.083-.083,0-.248,0-.082-.082-.165-.165-.247A.491.491,0,0,0,.825,0C.577,0,.33.248.165.578A1.933,1.933,0,0,0,0,1.568c.082.742.412,1.4.99,1.485a.625.625,0,0,0,.577-.083C1.732,2.97,1.732,2.888,1.732,2.888Z" transform="translate(151.505 136.462)" fill="#eb996e"/>
        <path id="Path-159" data-name="Path" d="M.6,14.832a1.721,1.721,0,0,1,1.731.908c.248.495.248,1.072.495,1.567s.743.99,1.32.825a.967.967,0,0,0,.742-.825,2.734,2.734,0,0,0,0-1.155c-.247-1.65-.577-3.3-.66-4.95A8.054,8.054,0,0,1,5.3,6.417,4.628,4.628,0,0,1,9.424,4.106c1.072.083,2.144.66,3.216.825a4.309,4.309,0,0,0,3.629-1.237c.082-.083.659-.5.659-.5a1.763,1.763,0,0,0-.412-1.073C14.372.146,10.413-.431,7.527.311A10.236,10.236,0,0,0,.765,5.757C-.39,8.4-.06,12.109.6,14.832Z" transform="translate(151.565 120.64)" fill="#263238"/>
        <path id="Path-160" data-name="Path" d="M20.37,7.1S6.763,2.726.907,14.524A21.852,21.852,0,0,1,0,9.986,10.141,10.141,0,0,1,7.092.663S16.824-3.049,20.37,7.1Z" transform="translate(151.01 119.628)" fill="#d12028"/>
        <path id="Path-161" data-name="Path" d="M.33,2.392A3.114,3.114,0,0,0,2.557,3.8a2.922,2.922,0,0,0,2.474-.99A1.717,1.717,0,0,0,6.763,3.877,1.681,1.681,0,0,0,8.33,2.64a5.042,5.042,0,0,0,1.319.99,1.4,1.4,0,0,0,1.485-.33,1.37,1.37,0,0,0-.083-1.568,2.777,2.777,0,0,0-1.4-.908A9.943,9.943,0,0,0,4.536.082,7.135,7.135,0,0,0,0,2.557" transform="translate(159.339 124.582)" fill="#263238"/>
        <g id="Group-8" data-name="Group" transform="translate(151 119)" opacity="0.4">
            <path id="Path-162" data-name="Path" d="M20.37,7.115a6.539,6.539,0,0,0-4.289-1.981A17.08,17.08,0,0,0,.907,14.457,21.853,21.853,0,0,1,0,9.92,10.14,10.14,0,0,1,7.092.6C7.092.679,16.824-3.033,20.37,7.115Z" transform="translate(0.01 0.612)" opacity="0.4"/>
        </g>
        <path id="Path-163" data-name="Path" d="M0,12.841a25.782,25.782,0,0,1,7.917-7.59A51.386,51.386,0,0,1,19.792.383a9.014,9.014,0,0,1,3.3-.33,2.852,2.852,0,0,1,2.391,1.98c.33,1.32-2.061,3.383-3.134,4.208a36.87,36.87,0,0,1-3.381,1.98s0-2.475-3.958-2.97C9.483,4.591,0,12.841,0,12.841Z" transform="translate(152.495 119.908)" fill="#d12028"/>
        <g id="Group-9" data-name="Group" transform="translate(147 176)" opacity="0.3">
            <path id="Path-164" data-name="Path" d="M0,0C1.4,3.382,2.8,7.59,4.866,10.643a19.07,19.07,0,0,0,8.164,7.178,17.48,17.48,0,0,0,13.525.247c.33-.165.99-.33.99-.743,0,0-1.4-.165-1.814-.247-8.577-1.4-9.484-2.475-13.525-5.693C9.484,9.323,3.794,3.217,0,0Z" transform="translate(0.711 0.972)" opacity="0.3"/>
        </g>
        <path id="Path-165" data-name="Path" d="M19.215,0a4.484,4.484,0,0,1-.329.825,9.963,9.963,0,0,1-1.4,1.9,15.326,15.326,0,0,1-6.6,4.043A29.829,29.829,0,0,1,3.217,7.925c-.99,0-1.815.082-2.392.082H0a3.764,3.764,0,0,1,.825-.082c.66,0,1.4-.083,2.309-.165a33.328,33.328,0,0,0,7.587-1.238,15.664,15.664,0,0,0,6.515-3.877C18.638,1.077,19.133-.078,19.215,0Z" transform="translate(155.628 201.636)" fill="#263238"/>
        <path id="Path-166" data-name="Path" d="M34.884,53.793a.256.256,0,0,0-.083-.165c0-.165-.082-.33-.082-.577-.082-.578-.247-1.321-.412-2.311-.33-2.062-.825-4.95-1.485-8.5-1.237-7.177-2.886-17.078-4.783-28.051C27.214,9.241,26.39,4.538,25.73.165L25.9.33c-7.587.578-14.02.99-18.638,1.4-2.309.165-4.123.247-5.36.33-.578,0-1.073.082-1.4.082H.412a12.185,12.185,0,0,0,1.4-.165c1.237-.082,3.051-.247,5.361-.5C11.793,1.155,18.225.578,25.812,0h.165V.165c.743,4.291,1.485,9.076,2.392,14.026,1.814,10.973,3.464,20.874,4.618,28.051.577,3.548,1.072,6.436,1.4,8.5.165.99.248,1.733.33,2.311,0,.247.082.412.082.577A.256.256,0,0,1,34.884,53.793Z" transform="translate(176.658 228.949)" fill="#455a64"/>
        <path id="Path-167" data-name="Path" d="M4.707.005A27.289,27.289,0,0,1,2.315,2.4C1,3.717.088,4.872.006,4.79A9.137,9.137,0,0,1,2.068,2.15,15.344,15.344,0,0,1,4.707.005Z" transform="translate(202.217 224.407)" fill="#455a64"/>
        <path id="Path-168" data-name="Path" d="M13.937.165a.636.636,0,0,0,.083.248,1.426,1.426,0,0,1,.082.66,5.482,5.482,0,0,1-.329,2.393,6.13,6.13,0,0,1-2.145,2.8A6,6,0,0,1,7.422,7.343,7.276,7.276,0,0,1,3.381,5.858,8.67,8.67,0,0,1,1.072,3.136,10.563,10.563,0,0,1,.165.908C.083.66.083.413,0,.248V0A16.122,16.122,0,0,0,1.237,2.97,8.219,8.219,0,0,0,3.546,5.528a7.316,7.316,0,0,0,3.876,1.4,6.913,6.913,0,0,0,3.959-.99A5.555,5.555,0,0,0,13.443,3.3a6.747,6.747,0,0,0,.412-2.228A1.869,1.869,0,0,0,13.937.165Z" transform="translate(153.154 152.55)" fill="#263238"/>
        <path id="Path-169" data-name="Path" d="M2.062,17.409a5.958,5.958,0,0,1-.165-.66c-.082-.5-.165-1.155-.247-1.9-.248-1.65-.5-3.8-.825-6.1C.5,6.353.33,4.126.165,2.558.083,1.733.083,1.155,0,.66V0A5.958,5.958,0,0,1,.165.66c.083.495.165,1.156.248,1.9.247,1.65.494,3.8.742,6.188.33,2.392.577,4.538.66,6.188.082.825.164,1.4.164,1.9A2.625,2.625,0,0,1,2.062,17.409Z" transform="translate(174.266 163.688)" fill="#263238"/>
    </g>
</svg>
