<svg xmlns="http://www.w3.org/2000/svg" width="34.021" height="36.006" viewBox="0 0 34.021 36.006">
  <g id="Group" transform="translate(-0.993 -0.98)">
    <path id="Shape" d="M1.011,6.52C-.138,5.826-.2,3.813.285,2.566.95.761,2.7-.764,4.392.416A4.051,4.051,0,0,1,5.479,5.478,3.383,3.383,0,0,1,2.558,6.9,3.035,3.035,0,0,1,1.011,6.52Z" transform="translate(11.826 9.255)" fill="#e24047"/>
    <path id="Shape-2" data-name="Shape" d="M.027,3.274V3.066c-.06-.07,0-.14,0-.208C.208,1.332.932.222,2.322.014A2.435,2.435,0,0,1,5.04,2.3C5.221,3.9,4.134,5.771,2.745,6.048a2.1,2.1,0,0,1-.366.033C1.024,6.081.193,4.677.027,3.274Z" transform="translate(7.978 21.865)" fill="#e24047"/>
    <path id="Shape-3" data-name="Shape" d="M.166,2.335V2.2C.891.6,2.22-.44,3.79.184A2.883,2.883,0,0,1,5.3,4.069,2.647,2.647,0,0,1,2.734,5.876,2.6,2.6,0,0,1,.166,2.335Z" transform="translate(18.951 16.909)" fill="#e24047"/>
    <path id="Path" d="M.374.981c.483-.069,1.268.555,1.147,1.18s.725.9.846.277C2.608,1.259,1.461-.128.434.01A.446.446,0,0,0,.012.5C-.049.773.132,1.051.374.981Z" transform="translate(20.253 11.88)" fill="#e24047"/>
    <path id="Path-2" data-name="Path" d="M.951,2.833c.483.278.9-.555.422-.832-.181-.139-.362-.208-.483-.486A.738.738,0,0,1,1.011.822C1.434.406.83-.288.407.128A1.677,1.677,0,0,0,.045,1.654,1.875,1.875,0,0,0,.951,2.833Z" transform="translate(14.966 18.213)" fill="#e24047"/>
    <path id="Path-3" data-name="Path" d="M.992,3.322c.483.278.906-.555.422-.832a1.25,1.25,0,0,1-.3-1.8C1.414.2.69-.285.388.2A2.2,2.2,0,0,0,.992,3.322Z" transform="translate(25.614 16.406)" fill="#e24047"/>
    <path id="Path-4" data-name="Path" d="M1.8,1.293C1.375,1.432.711,1.224.832.6S.167-.233.047.322A1.557,1.557,0,0,0,2.04,2.195C2.523,2.056,2.281,1.085,1.8,1.293Z" transform="translate(5.543 27.522)" fill="#e24047"/>
    <path id="Path-5" data-name="Path" d="M.324.975a.617.617,0,0,1,.544.555c.06.347-.061.763-.363.832-.483.208-.3,1.11.242.971a1.714,1.714,0,0,0,.966-1.8A1.513,1.513,0,0,0,.566,0C-.038-.066-.219.906.324.975Z" transform="translate(9.493 16.187)" fill="#e24047"/>
    <path id="Path-6" data-name="Path" d="M.912.186a1.523,1.523,0,0,0-.9,1.595c.06.624.9.624.845,0a.668.668,0,0,1,.423-.693A.6.6,0,0,1,2.06,1.3c.362.416.966-.208.6-.694A1.3,1.3,0,0,0,.912.186Z" transform="translate(15.306 23.635)" fill="#e24047"/>
    <path id="Shape-4" data-name="Shape" d="M15.89,33.176a15.9,15.9,0,0,1-.121-2.427c0-.277.06-.625.06-.971-.544.278-1.148.486-1.691.763h-.06A6.158,6.158,0,0,1,14.138,32c-.121,1.111-.786,2.358-1.812,1.318-.544-.555-.363-1.249-.423-1.873C9.247,32.9,6.227,34.771,3.328,35.465c-1.449.347-2.777-.694-3.262-2.29v-.068c-.362-1.249.846-3.122,1.269-4.093,1.811-4.3,3.5-8.67,5.134-13.11C7.918,12.089,9.911,8.552,11,4.6,10.454,2.8,11.119.575,12.81.159c2.657-.694,6.341,1.04,8.756,2.15a27.981,27.981,0,0,1,7.67,5.756c2.174,2.151,4.167,4.37,4.65,7.77.665,3.33-1.208,4.577-3.684,6.035-3.623,2.219-7.429,4.163-11.051,6.381,0,2.428.905,6.243-.906,7.492a1.36,1.36,0,0,1-.743.263C16.475,36.006,16.039,34.262,15.89,33.176Z" transform="translate(0.993 0.98)" fill="#e24047"/>
    <path id="Path-7" data-name="Path" d="M.329.975A17.484,17.484,0,0,1,6.187,3.611c.483.347.9-.555.422-.832A17.126,17.126,0,0,0,.51,0,.5.5,0,0,0,.329.975Z" transform="translate(16.373 3.146)" fill="#e24047"/>
    <path id="Path-8" data-name="Path" d="M.5.985c.544,0,.544-.971,0-.971S-.043.985.5.985Z" transform="translate(23.75 6.881)" fill="#e24047"/>
  </g>
</svg>
