<svg xmlns="http://www.w3.org/2000/svg" width="33.96" height="35.941" viewBox="0 0 33.96 35.941">
  <path id="Shape" d="M7.5,35.719a24.554,24.554,0,0,1-3.947-.443A3.287,3.287,0,0,1,1.9,34.833c-.884-.887-1.179-3.844-.824-5.1a2.315,2.315,0,0,1,1.944-1.553,7.692,7.692,0,0,1-.53-3.844,1.456,1.456,0,0,1-.707.3A1.678,1.678,0,0,1,.19,23.892C-.517,22.34.9,20.714,1.958,19.826c-.059,0-.118-.074-.177-.148-.589-.739-.766-2.809-.766-3.844C1.075,12.508,2.9,9.256,4.491,6.817,6.436,3.785,8.675,1.568,11.74.68,16.808-.871,21.58.311,26.059,3.416c3.653,2.514,7.6,8.206,6.952,13.9a3.847,3.847,0,0,1-.884,2c1.179.739,2.534,2.069,1.415,3.622a2.433,2.433,0,0,1-1.709,1.184.731.731,0,0,1-.413-.149,3.844,3.844,0,0,1-.766,3.7,2.46,2.46,0,0,1,2.181,2.144c.294,1.553.176,3.622-.942,4.583-1.591,1.33-4.184,1.256-5.952,1.33-3.065.149-6.187.222-9.251.222S10.562,35.793,7.5,35.719Z" transform="translate(0 0)" fill="#e24047"/>
</svg>
