<svg xmlns="http://www.w3.org/2000/svg" width="41.018" height="29.138" viewBox="0 0 41.018 29.138">
  <g id="Group" transform="translate(-0.986)">
    <path id="Shape" d="M34.193,28.239a4.326,4.326,0,0,1-.419-1.869,3.363,3.363,0,0,0-.069-.831c-.21-1.522-1.113-2.146-2.228-2.838-.139.139-.347.277-.487.416a2.307,2.307,0,0,1-1.323.415,4.445,4.445,0,0,1-1.88-.484,2.427,2.427,0,0,0-.625-.277,6.938,6.938,0,0,1-1.949-1.177,8.669,8.669,0,0,1-4.107.762H19.853a8.22,8.22,0,0,1-4.037-.9,5.06,5.06,0,0,1-3.272,1.384,2.882,2.882,0,0,1-2.3-1.039l-.07-.068A9.237,9.237,0,0,0,7.044,24.5c-.139.208-.279.485-.418.692a4.429,4.429,0,0,1-1.6,1.8,2.33,2.33,0,0,1-1.114.347c-1.044,0-2.018-.969-2.784-2.976C-.125,21.11-.334,18.48.5,15.85a13.789,13.789,0,0,1,3.272-5.814A3.481,3.481,0,0,1,3.7,7.821,6.72,6.72,0,0,1,6.14,5.191,11.4,11.4,0,0,1,12.2,2.976a5.412,5.412,0,0,1,1.531.208C14.772,1.453,17.208.692,19.018.346A22.755,22.755,0,0,1,22.637,0a13.306,13.306,0,0,1,4.038.623,5.749,5.749,0,0,1,2.644,1.384,2.587,2.587,0,0,1,.488,1.246.9.9,0,0,1,.418-.068,5.637,5.637,0,0,1,2.3.76c.278.139.557.208.766.347a14.551,14.551,0,0,1,3.342,1.938A5.35,5.35,0,0,1,38.648,9.69a5.389,5.389,0,0,1-.488,2.422c1.81,1.315,2.785,4.291,2.854,6.645a12.98,12.98,0,0,1-2.436,7.959c-1.183,1.592-2.228,2.423-3.063,2.423A1.533,1.533,0,0,1,34.193,28.239Z" transform="translate(0.985)" fill="#e24047"/>
    <path id="Path" d="M1.08,4.9C1.011,3.655.593,1.579,1.916.887,2.473.61,1.985-.221,1.429.056-.312.956-.033,3.309.106,4.9.176,5.455,1.15,5.455,1.08,4.9Z" transform="translate(16.417 3.889)" fill="#e24047"/>
    <path id="Path-2" data-name="Path" d="M.531.015a.486.486,0,1,0-.07.969h.07A.485.485,0,0,0,.531.015Z" transform="translate(19.055 2.961)" fill="#e24047"/>
  </g>
</svg>
