<svg xmlns="http://www.w3.org/2000/svg" width="327" height="48" viewBox="0 0 327 48">
    <path id="Path" d="M3.75,4.868a4.223,4.223,0,0,1,.6-2.171V0h-2.7a8,8,0,0,0,0,9.736h2.7v-2.7A4.223,4.223,0,0,1,3.75,4.868Z" transform="translate(54 18.132)" fill="#fbbd00"/>
    <path id="Path-2" data-name="Path" d="M1.875.6,0,2.47,1.875,4.345A7.937,7.937,0,0,0,6.743,2.694V0H4.049A4.248,4.248,0,0,1,1.875.6Z" transform="translate(60.125 26.655)" fill="#0f9d58"/>
    <path id="Path-3" data-name="Path" d="M2.7,0,0,2.7a8.07,8.07,0,0,0,.692.789A7.948,7.948,0,0,0,6.349,5.829V2.079A4.252,4.252,0,0,1,2.7,0Z" transform="translate(55.651 25.171)" fill="#31aa52"/>
    <path id="Path-4" data-name="Path" d="M8,1.834A8.068,8.068,0,0,0,7.869.385L7.8,0H0V3.75H3.8A4.225,4.225,0,0,1,2.174,5.489L4.868,8.183a8.082,8.082,0,0,0,.789-.692A7.948,7.948,0,0,0,8,1.834Z" transform="translate(62 21.166)" fill="#3c79e6"/>
    <path id="Path-5" data-name="Path" d="M4.88,4.995l.332.331L7.863,2.675l-.331-.332A7.948,7.948,0,0,0,1.875,0L0,1.875,1.875,3.75A4.221,4.221,0,0,1,4.88,4.995Z" transform="translate(60.125 15)" fill="#cf2d48"/>
    <path id="Path-6" data-name="Path" d="M6.349,3.75V0A7.948,7.948,0,0,0,.692,2.343,8.085,8.085,0,0,0,0,3.132l2.7,2.7A4.251,4.251,0,0,1,6.349,3.75Z" transform="translate(55.651 15)" fill="#eb4132"/>
</svg>
