<svg xmlns="http://www.w3.org/2000/svg" width="34.015" height="35.833" viewBox="0 0 34.015 35.833">
  <g id="Group" transform="translate(-0.95 -0.952)">
    <path id="Shape" d="M6.981,35.448c-.924-1,.33-3.067.924-3.867a10.02,10.02,0,0,1,3.565-2.866,9.291,9.291,0,0,1-4.687-1.467c-.99-.667-1.716-1.933-.726-2.933,1.057-1,3.236-.868,4.489-.535a6.857,6.857,0,0,1,4.028,3.667v.067c4.159.466,8.517-.334,9.573-5.067.4-2,.4-5.6-1.122-7.267-1.32-1.466-3.764-1.533-5.48-1.733-2.707-.266-5.677-.467-7.856-2.2a8.528,8.528,0,0,1-3.1-5.468c-1.386.2-5.083.868-5.215-.932-.066-.868.859-1.2,1.518-1.534a2.4,2.4,0,0,0,.726-.334H.446a.467.467,0,0,1,0-.932c.661,0,5.216-.6,4.159,1.266a1.848,1.848,0,0,1-.792.666c-.264.2-1.651.535-1.122,1.134.265.266,1.783,0,2.113,0s.594-.067.858-.067l-.2-.2c-.4-.667-.066-1.333.528-1.867a7.1,7.1,0,0,1,1.716-.932c.33-.133,1.585-.4,1.32-.868-.2-.333-1.98-.132-2.377-.132a11.9,11.9,0,0,1-2.178,0c-.594-.068-.594-1,0-.933C4.747.131,5.225.1,5.791.059c1.742-.111,4.326-.221,4.426,1.189.066.867-.924,1.133-1.519,1.4a11.131,11.131,0,0,0-1.98,1c-.99.734.2,1.067.858,1.133h.067c5.876-.8,12.741-1.666,18.485-.066,4.952,1.4,7.262,5.333,7.79,10.333.528,4.6-1.057,10.868-5.546,12.8-3.631,1.733-9.7,3.2-13.468.933a9.13,9.13,0,0,1-3.5,5.267c-.663.515-2.27,1.785-3.485,1.785A1.23,1.23,0,0,1,6.981,35.448Z" transform="translate(0.95 0.952)" fill="#e24047"/>
    <path id="Path" d="M.5.034A.467.467,0,0,0,.5.966.467.467,0,0,0,.5.034Z" transform="translate(13.374 7.034)" fill="#e24047"/>
    <path id="Path-2" data-name="Path" d="M.311.916A7.647,7.647,0,0,1,4.074,3.383c.33.467,1.188,0,.792-.467A7.1,7.1,0,0,0,3.084,1.25,10.014,10.014,0,0,0,.509.05C-.019-.217-.217.65.311.916Z" transform="translate(26.767 7.817)" fill="#e24047"/>
    <path id="Path-3" data-name="Path" d="M.5.966A.467.467,0,0,0,.5.034.467.467,0,0,0,.5.966Z" transform="translate(31.397 11.767)" fill="#e24047"/>
  </g>
</svg>
